<svg width="39" height="39" viewBox="0 0 39 39" fill="none" xmlns="http://www.w3.org/2000/svg">
<g id="Icon / news" clip-path="url(#clip0_419_17978)">
<g id="Vector">
<path d="M38.0862 14.6482C38.0862 18.4496 38.0577 22.251 38.0862 26.0524C38.0862 27.6673 37.0144 28.9106 35.6711 29.1821C35.1137 29.2965 34.5564 29.2679 34.0133 29.0821C29.3402 27.5244 24.6527 25.9524 19.9653 24.409C19.7367 24.3375 19.6652 24.2375 19.6652 24.0088C19.6652 17.7494 19.6652 11.49 19.6652 5.21622C19.6652 4.98757 19.7367 4.88753 19.9653 4.81608C24.6242 3.27265 29.283 1.72923 33.9276 0.157228C36.1713 -0.600192 38.1148 1.10043 38.0862 3.18691C38.0291 7.00259 38.0719 10.8183 38.0719 14.634L38.0862 14.6482Z" fill="#2785FF"/>
<path d="M17.5073 14.634C17.5073 17.8494 17.5073 21.0649 17.5073 24.2661C17.5073 24.6376 17.4072 24.7091 17.05 24.7091C14.1775 24.6948 11.305 24.7091 8.43252 24.7091C4.28814 24.6948 0.972642 21.9938 0.129476 17.9495C0.0580212 17.6208 0.0151483 17.2778 0.0151483 16.9348C0.0151483 15.4343 -0.0277245 13.9337 0.0151483 12.4189C0.115185 8.71751 3.11628 5.30197 6.77477 4.70175C7.40357 4.60171 8.04666 4.54455 8.68976 4.54455C11.4908 4.54455 14.2918 4.54455 17.1071 4.54455C17.4215 4.54455 17.5216 4.616 17.5216 4.9447C17.5216 8.17445 17.5216 11.4042 17.5216 14.6197L17.5073 14.634Z" fill="#2785FF"/>
<path d="M12.4769 26.767C14.2632 26.767 16.0639 26.767 17.8503 26.767C18.1218 26.767 18.2218 26.8384 18.2933 27.0957C18.7077 28.8249 19.1793 30.5541 19.5652 32.2976C20.3369 35.8274 17.6502 39.0715 14.0346 39.0143C11.5051 38.9714 9.37572 37.2851 8.74692 34.7985C8.08954 32.2547 7.47502 29.6966 6.83193 27.1528C6.76048 26.867 6.74619 26.767 7.11775 26.767C8.90412 26.7956 10.7048 26.767 12.4911 26.767H12.4769Z" fill="#2785FF"/>
</g>
</g>
<defs>
<clipPath id="clip0_419_17978">
<rect width="38.0997" height="39" fill="white"/>
</clipPath>
</defs>
</svg>
