<svg width="40" height="38" viewBox="0 0 40 38" fill="none" xmlns="http://www.w3.org/2000/svg">
<g id="Group 1015">
<path id="Vector" d="M8.0009 10.6666C9.47332 10.6666 10.7301 10.1459 11.7715 9.10424C12.8132 8.06262 13.3341 6.80552 13.3341 5.33339C13.3341 3.8614 12.8132 2.60431 11.7715 1.56254C10.7301 0.52092 9.47325 0 8.0009 0C6.52862 0 5.27181 0.52092 4.23019 1.56254C3.18864 2.60431 2.66772 3.86111 2.66772 5.33339C2.66772 6.80581 3.18864 8.06262 4.23019 9.10424C5.27181 10.1456 6.52862 10.6666 8.0009 10.6666Z" fill="#277EFF"/>
<path id="Vector_2" d="M14.3454 18.9899C15.9079 20.5519 17.793 21.3332 20.0016 21.3332C22.2103 21.3332 24.0954 20.5519 25.6578 18.9899C27.22 17.427 28.0013 15.5416 28.0013 13.3334C28.0013 11.1251 27.22 9.23985 25.6578 7.67731C24.0954 6.11477 22.2103 5.3335 20.0016 5.3335C17.793 5.3335 15.9078 6.11491 14.3454 7.67731C12.7831 9.23963 12.0017 11.1249 12.0017 13.3334C12.0017 15.542 12.7831 17.4272 14.3454 18.9899Z" fill="#277EFF"/>
<path id="Vector_3" d="M31.993 10.6666C33.4648 10.6666 34.7218 10.1459 35.7633 9.10424C36.8049 8.06262 37.3255 6.80552 37.3255 5.33339C37.3255 3.8614 36.8049 2.60431 35.7633 1.56254C34.7218 0.52092 33.4648 0 31.993 0C30.5202 0 29.2635 0.52092 28.2218 1.56254C27.1805 2.60431 26.6597 3.86111 26.6597 5.33339C26.6597 6.80581 27.1806 8.06262 28.2218 9.10424C29.2635 10.1456 30.5202 10.6666 31.993 10.6666Z" fill="#277EFF"/>
<path id="Vector_4" d="M37.4142 10.667C37.3313 10.667 37.0292 10.8129 36.5083 11.1045C35.9879 11.3963 35.3105 11.6915 34.4774 11.9901C33.6444 12.2885 32.8176 12.4379 31.9985 12.4379C31.0676 12.4379 30.1447 12.2783 29.2277 11.9587C29.2967 12.4723 29.3316 12.9308 29.3316 13.3335C29.3316 15.2641 28.769 17.0417 27.6436 18.6667C29.894 18.7364 31.7339 19.6251 33.1649 21.3338H35.9564C37.0951 21.3338 38.0534 21.052 38.831 20.4896C39.6087 19.9275 39.9977 19.1042 39.9977 18.0211C39.9979 13.1181 39.1372 10.6667 37.4142 10.667Z" fill="#277EFF"/>
<path id="Vector_5" d="M34.2984 27.5102C34.1525 26.6977 33.9683 25.9441 33.746 25.2498C33.5238 24.5551 33.2251 23.8785 32.8506 23.2187C32.4755 22.5595 32.0448 21.9966 31.5587 21.5312C31.0722 21.0657 30.4784 20.6947 29.7772 20.4165C29.0761 20.1388 28.3014 20 27.4544 20C27.3153 20 27.0169 20.1494 26.5585 20.448C26.1001 20.7464 25.5936 21.0803 25.0378 21.4478C24.4821 21.8154 23.7398 22.149 22.8086 22.4476C21.8774 22.7463 20.94 22.8957 19.9961 22.8957C19.0518 22.8957 18.1142 22.7463 17.1836 22.4476C16.2529 22.149 15.51 21.8154 14.9545 21.4478C14.3987 21.0803 13.892 20.7464 13.4337 20.448C12.9753 20.1494 12.6768 20 12.5378 20C11.6907 20 10.9164 20.1388 10.215 20.4165C9.51351 20.6947 8.91984 21.0657 8.4338 21.5312C7.94732 21.9961 7.51718 22.5595 7.1419 23.2187C6.76706 23.8785 6.46848 24.5551 6.24622 25.2498C6.02403 25.9441 5.84022 26.6977 5.69414 27.5102C5.5482 28.3228 5.45108 29.0794 5.40249 29.7811C5.35382 30.4825 5.32959 31.2015 5.32959 31.9376C5.32959 33.6039 5.83635 34.9201 6.85017 35.885C7.86436 36.8499 9.21164 37.3329 10.8918 37.3329H29.0999C30.7802 37.3329 32.1274 36.8499 33.1418 35.885C34.1556 34.9201 34.6625 33.6039 34.6625 31.9376C34.6625 31.2015 34.6381 30.4828 34.5901 29.7811C34.5408 29.0794 34.4437 28.3227 34.2984 27.5102Z" fill="#277EFF"/>
<path id="Vector_6" d="M12.3537 18.6667C11.2287 17.0417 10.6663 15.2641 10.6666 13.3335C10.6666 12.9308 10.7014 12.4726 10.7707 11.9587C9.85391 12.2781 8.93036 12.4379 7.99979 12.4379C7.18036 12.4379 6.35422 12.2886 5.52077 11.9901C4.6877 11.6915 4.0104 11.3963 3.48978 11.1045C2.96893 10.8129 2.66662 10.667 2.58337 10.667C0.861097 10.6671 0 13.1184 0 18.0211C0 19.1042 0.38892 19.9275 1.16654 20.4896C1.94438 21.052 2.90275 21.3333 4.04127 21.3333H6.83303C8.26372 19.6251 10.1037 18.7363 12.3537 18.6667Z" fill="#277EFF"/>
</g>
</svg>
