<svg width="40" height="40" viewBox="0 0 40 40" fill="none" xmlns="http://www.w3.org/2000/svg">
<g id="Group 1017">
<path id="Vector" d="M20 0C8.95404 0 0 8.83924 0 19.7436C0 30.6479 8.95404 39.4872 20 39.4872C31.046 39.4872 40 30.6479 40 19.7436C40 8.83924 31.046 0 20 0ZM4.57143 19.724H7.14534C7.06584 14.2056 11.0807 8.95697 16.477 7.52954C17.6348 7.21561 18.8273 7.03902 20.0298 7.05373C22.7329 7.05864 25.4807 7.89253 27.6224 9.54069C29.128 11.2526 26.2609 13.0872 24.964 11.4194C21.0733 9.09431 15.5826 9.91349 12.6559 13.3864C11.0957 15.113 10.2211 17.4136 10.2311 19.724H12.805C11.4335 21.7547 10.0621 23.7855 8.69068 25.8163C7.31925 23.7855 5.94783 21.7547 4.5764 19.724H4.57143ZM32.8596 19.7485C32.9342 25.3307 28.8099 30.6381 23.3193 31.992C19.6124 33.0123 15.4236 32.2667 12.3826 29.9318C10.8273 28.1904 13.7391 26.3706 15.046 28.058C18.8174 30.3144 24.0944 29.5982 27.0708 26.3755C28.795 24.6243 29.7888 22.1913 29.7739 19.7485H27.2C28.5714 17.7177 29.9429 15.687 31.3143 13.6562C32.6857 15.687 34.0571 17.7177 35.4286 19.7485H32.8547H32.8596Z" fill="#2782FF"/>
</g>
</svg>
