<svg width="183" height="35" viewBox="0 0 183 35" fill="none" xmlns="http://www.w3.org/2000/svg">
<path d="M50.1 0.399998L38.772 34H35.028L25.188 5.344L15.3 34H11.604L0.276 0.399998H3.924L13.62 29.296L23.652 0.399998H26.964L36.852 29.44L46.692 0.399998H50.1ZM80.3726 30.928V34H56.6126V0.399998H79.6526V3.472H60.1646V15.424H77.5406V18.448H60.1646V30.928H80.3726ZM109.89 16.672C112.098 17.152 113.794 18.112 114.978 19.552C116.194 20.96 116.802 22.784 116.802 25.024C116.802 27.904 115.73 30.128 113.586 31.696C111.474 33.232 108.338 34 104.178 34H88.722V0.399998H103.218C106.962 0.399998 109.858 1.152 111.906 2.656C113.986 4.16 115.026 6.288 115.026 9.04C115.026 10.896 114.562 12.48 113.634 13.792C112.738 15.072 111.49 16.032 109.89 16.672ZM92.274 3.328V15.52H102.978C105.698 15.52 107.794 15.008 109.266 13.984C110.738 12.928 111.474 11.408 111.474 9.424C111.474 7.44 110.738 5.936 109.266 4.912C107.794 3.856 105.698 3.328 102.978 3.328H92.274ZM104.13 31.072C107.138 31.072 109.41 30.56 110.946 29.536C112.482 28.512 113.25 26.912 113.25 24.736C113.25 20.544 110.21 18.448 104.13 18.448H92.274V31.072H104.13ZM131.198 15.424C135.038 15.424 137.95 16.272 139.934 17.968C141.95 19.632 142.958 21.904 142.958 24.784C142.958 27.632 141.982 29.904 140.03 31.6C138.11 33.296 135.39 34.144 131.87 34.144C129.374 34.144 127.086 33.712 125.006 32.848C122.926 31.952 121.374 30.8 120.35 29.392L120.974 28.768C121.934 30.08 123.39 31.152 125.342 31.984C127.294 32.816 129.47 33.232 131.87 33.232C135.134 33.232 137.63 32.48 139.358 30.976C141.118 29.472 141.998 27.408 141.998 24.784C141.998 22.128 141.102 20.064 139.31 18.592C137.518 17.088 134.83 16.336 131.246 16.336H129.518V15.616L140.414 1.312H121.406V0.399998H141.71V1.12L130.814 15.424H131.198ZM150.102 34.144C149.782 34.144 149.494 34.016 149.238 33.76C148.982 33.504 148.854 33.216 148.854 32.896C148.854 32.544 148.982 32.256 149.238 32.032C149.494 31.776 149.782 31.648 150.102 31.648C150.454 31.648 150.742 31.776 150.966 32.032C151.222 32.256 151.35 32.544 151.35 32.896C151.35 33.216 151.222 33.504 150.966 33.76C150.742 34.016 150.454 34.144 150.102 34.144ZM169.632 34.144C167.104 34.144 164.864 33.456 162.912 32.08C160.992 30.672 159.488 28.688 158.4 26.128C157.344 23.568 156.816 20.592 156.816 17.2C156.816 13.808 157.344 10.832 158.4 8.272C159.488 5.712 160.992 3.744 162.912 2.368C164.864 0.959999 167.104 0.256 169.632 0.256C172.16 0.256 174.384 0.959999 176.304 2.368C178.256 3.744 179.76 5.712 180.816 8.272C181.904 10.832 182.448 13.808 182.448 17.2C182.448 20.592 181.904 23.568 180.816 26.128C179.76 28.688 178.256 30.672 176.304 32.08C174.384 33.456 172.16 34.144 169.632 34.144ZM169.632 33.232C171.968 33.232 174.032 32.576 175.824 31.264C177.616 29.952 179.008 28.096 180 25.696C180.992 23.264 181.488 20.432 181.488 17.2C181.488 13.968 180.992 11.152 180 8.752C179.008 6.32 177.616 4.448 175.824 3.136C174.032 1.824 171.968 1.168 169.632 1.168C167.296 1.168 165.232 1.824 163.44 3.136C161.648 4.448 160.256 6.32 159.264 8.752C158.272 11.152 157.776 13.968 157.776 17.2C157.776 20.432 158.272 23.264 159.264 25.696C160.256 28.096 161.648 29.952 163.44 31.264C165.232 32.576 167.296 33.232 169.632 33.232Z" fill="#DEEFFF"/>
</svg>
