<svg width="12" height="12" viewBox="0 0 12 12" fill="none" xmlns="http://www.w3.org/2000/svg">
<g id="Group 360">
<g id="Vr4eaF.tif">
<path id="Vector" d="M11.0304 11.5H1.68677C1.67418 11.4938 1.66226 11.4845 1.64901 11.4817C1.0831 11.3646 0.717678 10.9296 0.717457 10.3654C0.716795 7.45479 0.717238 4.54399 0.716797 1.6334C0.716797 1.53266 0.725849 1.43342 0.751682 1.3359C0.885929 0.83111 1.33481 0.500464 1.89079 0.500249C4.86894 0.499818 7.84709 0.500033 10.8252 0.500249C10.8584 0.500249 10.8915 0.499818 10.9244 0.501755C11.2404 0.520483 11.5011 0.649427 11.7142 0.8761C11.8672 1.03905 11.9423 1.23774 12.0001 1.44547V10.5548C11.9933 10.5705 11.9833 10.5858 11.98 10.6022C11.9253 10.8641 11.7897 11.0773 11.5804 11.2497C11.4194 11.3821 11.228 11.4462 11.0306 11.5H11.0304ZM6.92393 5.5172C6.92393 5.34391 6.92062 5.17062 6.92547 4.99755C6.92746 4.9235 6.90516 4.89982 6.82722 4.90025C6.32777 4.90348 5.82832 4.90348 5.32887 4.90025C5.25225 4.89982 5.23039 4.91962 5.23039 4.9954C5.2326 6.58146 5.23282 8.16753 5.22995 9.75338C5.22995 9.84142 5.26395 9.84982 5.33858 9.84939C5.82699 9.8468 6.3154 9.8453 6.80381 9.85025C6.9003 9.85133 6.92658 9.82743 6.92614 9.73207C6.92216 8.837 6.92371 7.94193 6.92415 7.04686C6.92415 6.9754 6.92636 6.9035 6.93342 6.83246C6.98067 6.35522 7.52473 6.00369 7.99282 6.14663C8.38452 6.26631 8.61283 6.57673 8.61349 6.998C8.61482 7.91093 8.61526 8.82387 8.61195 9.7368C8.6115 9.82635 8.63646 9.85089 8.72787 9.85003C9.21628 9.84573 9.70469 9.84551 10.1931 9.85003C10.2849 9.85089 10.3084 9.827 10.3079 9.73767C10.3046 8.74594 10.3055 7.75422 10.3059 6.7625C10.3061 6.08313 10.0206 5.54131 9.45849 5.14845C8.86277 4.73213 8.1083 4.6415 7.42846 5.07892C7.241 5.19947 7.07981 5.34628 6.92393 5.51677V5.5172ZM4.10321 7.3859C4.10321 6.59481 4.10166 5.80371 4.10542 5.01262C4.10586 4.92264 4.08002 4.89917 3.98905 4.89982C3.49711 4.90391 3.00495 4.90369 2.51301 4.89982C2.42998 4.89917 2.40945 4.92156 2.40967 5.00121C2.4121 6.5834 2.4121 8.16559 2.40967 9.748C2.40967 9.827 2.42866 9.85068 2.51256 9.85003C3.00451 9.84594 3.49667 9.84594 3.98861 9.85003C4.0787 9.85089 4.10586 9.82829 4.10542 9.73788C4.10166 8.95389 4.10321 8.1699 4.10321 7.38612V7.3859ZM4.26815 2.97729C4.26991 2.4316 3.81396 1.98471 3.25556 1.98493C2.6987 1.98493 2.23656 2.43698 2.24032 2.97751C2.24407 3.52062 2.69207 3.95739 3.25004 3.9617C3.81109 3.966 4.26638 3.52579 4.26815 2.97729Z" fill="#BEC7E1"/>
</g>
</g>
</svg>
