<svg width="11" height="10" viewBox="0 0 11 10" fill="none" xmlns="http://www.w3.org/2000/svg">
<path id="Vector" d="M11 1.26985V1.5207C10.9673 1.55185 10.9764 1.59448 10.9673 1.63055C10.431 3.88655 9.89837 6.14255 9.36209 8.39855C9.32573 8.55267 9.30028 8.70842 9.22211 8.8527C9.09304 9.09208 8.88217 9.17569 8.60221 9.09535C8.50223 9.06748 8.41134 9.02485 8.3259 8.96911C7.54784 8.4543 6.76797 7.94112 5.9881 7.42795C5.83904 7.32957 5.88812 7.32629 5.74996 7.44434C5.3573 7.77881 4.96645 8.11491 4.57743 8.45266C4.47926 8.53791 4.36655 8.59366 4.23021 8.61333C4.16477 8.62317 4.13023 8.61497 4.14113 8.54119C4.1575 8.42314 4.15931 8.30346 4.17022 8.18541C4.21748 7.58698 4.26657 6.99019 4.31201 6.39176C4.31565 6.33601 4.33747 6.29831 4.38291 6.2606C5.86449 5.06537 7.34606 3.86851 8.82581 2.67001C8.89853 2.61263 8.96943 2.5536 9.03851 2.49294C9.06759 2.46835 9.08759 2.43392 9.06941 2.39621C9.05123 2.3585 9.01124 2.35358 8.96943 2.35194C8.85672 2.34866 8.76219 2.39457 8.67129 2.44539C8.01686 2.81429 7.3606 3.18319 6.70616 3.55208C5.46273 4.25216 4.2193 4.95225 2.97587 5.65233C2.93588 5.67528 2.90134 5.70151 2.83953 5.68348C2.01058 5.44903 1.18162 5.21785 0.352669 4.9834C0.205421 4.94241 0.0818047 4.87027 0 4.74894V4.63254C0.0363576 4.57351 0.076351 4.51613 0.134523 4.47186C0.265411 4.37185 0.418113 4.31283 0.576268 4.25872C2.91043 3.45535 5.24459 2.65034 7.57875 1.84532C8.46951 1.53873 9.35845 1.2305 10.2492 0.923905C10.5946 0.804219 10.9164 0.900952 10.9873 1.25017C10.9873 1.25673 10.9945 1.26165 10.9982 1.26657L11 1.26985Z" fill="#BEC7E1"/>
</svg>
