<svg width="12" height="12" viewBox="0 0 12 12" fill="none" xmlns="http://www.w3.org/2000/svg">
<g id="Group 358">
<g id="ZTje1Y.tif">
<path id="Vector" d="M0.923828 0.500646C2.00994 0.500646 3.09628 0.500646 4.1824 0.500215C4.20337 0.500215 4.2164 0.504951 4.22921 0.523033C4.77524 1.29863 5.32217 2.07358 5.86887 2.84875C6.25968 3.40305 6.6505 3.95736 7.04132 4.51145C7.04838 4.52135 7.05567 4.53104 7.0645 4.54331C7.11815 4.48282 7.17004 4.42427 7.22171 4.3655C8.09497 3.37658 8.96802 2.38765 9.84128 1.39873C10.0994 1.1064 10.3575 0.81407 10.6156 0.521526C10.6264 0.509472 10.6362 0.5 10.6558 0.5C10.9654 0.500861 11.2752 0.500646 11.5847 0.500646C11.5902 0.500646 11.5958 0.501076 11.6022 0.501507C11.6015 0.514207 11.5918 0.519804 11.5854 0.527123C10.8455 1.36536 10.1054 2.2036 9.36524 3.04162C8.74965 3.73887 8.13384 4.43611 7.51758 5.13292C7.50036 5.15251 7.50124 5.16413 7.51559 5.18458C8.02763 5.90916 8.53878 6.63438 9.05016 7.35961C9.58648 8.12014 10.123 8.88045 10.6596 9.64098C11.0906 10.2521 11.5216 10.8632 11.9528 11.4744C11.9574 11.4811 11.9601 11.4899 11.9689 11.4931C11.9676 11.4948 11.9718 11.4989 11.966 11.4987C11.9583 11.4985 11.9508 11.4987 11.9431 11.4987H8.67833C8.67303 11.4899 8.66817 11.4808 8.66221 11.4724C8.39239 11.0899 8.12257 10.7074 7.85298 10.3249C7.47894 9.79468 7.10513 9.26427 6.73109 8.73407C6.38267 8.24004 6.0338 7.74601 5.68604 7.25155C5.67081 7.23002 5.66374 7.2326 5.64829 7.25025C5.1612 7.80262 4.67368 8.35456 4.18615 8.90671C3.45111 9.73914 2.71606 10.5714 1.98146 11.4038C1.9543 11.4346 1.92339 11.463 1.90219 11.4985C1.5838 11.4985 1.26541 11.4985 0.947233 11.4981C0.939726 11.4981 0.929348 11.5043 0.92427 11.4929C0.934647 11.4903 0.938622 11.4808 0.944583 11.4742C1.62553 10.7035 2.30626 9.93266 2.98698 9.1618C3.72887 8.32163 4.47098 7.48123 5.21331 6.64149C5.2312 6.62125 5.2334 6.60834 5.21684 6.58552C5.10865 6.43462 5.00245 6.28264 4.89536 6.13088C4.47032 5.52814 4.04506 4.92562 3.62002 4.32288C3.20359 3.73241 2.78738 3.14194 2.37095 2.55168C1.92604 1.92139 1.48157 1.29088 1.03666 0.660802C0.999783 0.608708 0.966884 0.554031 0.923828 0.506243V0.500646ZM2.25327 1.21941C2.26033 1.22975 2.26585 1.23814 2.27203 1.24654C2.40716 1.43489 2.54229 1.62303 2.67742 1.81139C3.44647 2.88297 4.2153 3.95478 4.98434 5.02636C5.68251 5.99935 6.38068 6.97213 7.07885 7.94513C7.75936 8.89358 8.44008 9.84182 9.12037 10.7905C9.1334 10.8086 9.14665 10.8157 9.16939 10.8155C9.64587 10.8148 10.1224 10.815 10.5988 10.8148C10.6088 10.8148 10.6196 10.8183 10.63 10.8103C10.6253 10.803 10.6211 10.7957 10.6165 10.789C9.99209 9.91867 9.36744 9.04814 8.7428 8.17783C7.99142 7.13078 7.23982 6.08374 6.48821 5.03648C5.58028 3.77116 4.67235 2.50583 3.76486 1.24008C3.75117 1.22114 3.73748 1.2136 3.71342 1.21382C3.23781 1.21446 2.76221 1.21425 2.28683 1.21446C2.27667 1.21446 2.26585 1.21188 2.25327 1.21898V1.21941Z" fill="#BEC7E1"/>
</g>
</g>
</svg>
