<svg width="12" height="12" viewBox="0 0 12 12" fill="none" xmlns="http://www.w3.org/2000/svg">
<g id="Group 361">
<g id="wDIsLN">
<path id="Vector" d="M7.03572 8.6271C7.36073 8.58232 7.65572 8.53345 7.94342 8.44563C8.89154 8.15674 9.42477 7.52042 9.58574 6.57799C9.66699 6.10269 9.69194 5.62524 9.54555 5.15424C9.46142 4.88322 9.32806 4.63739 9.13884 4.42299C9.08209 4.35862 9.06708 4.30653 9.09313 4.22236C9.23025 3.78128 9.183 3.34623 9.03374 2.9157C9.00945 2.84574 8.96771 2.81841 8.8933 2.81927C8.69458 2.82163 8.50647 2.87028 8.32254 2.93723C8.0355 3.04163 7.76988 3.18651 7.51618 3.35248C7.45082 3.39531 7.39363 3.40651 7.31414 3.38735C6.43249 3.17316 5.54907 3.17273 4.66697 3.3852C4.58329 3.40543 4.52279 3.39531 4.45213 3.35054C4.07699 3.11246 3.68905 2.90064 3.23751 2.83132C2.99353 2.79387 2.96703 2.80743 2.89991 3.03453C2.78046 3.43923 2.75705 3.84586 2.88799 4.25314C2.9041 4.30351 2.90322 4.34248 2.8648 4.38639C2.34548 4.9788 2.25871 5.67453 2.35983 6.41418C2.42453 6.88711 2.56429 7.3325 2.87386 7.71265C3.26555 8.19377 3.80364 8.42259 4.40135 8.54422C4.56827 8.57823 4.73741 8.60105 4.922 8.63183C4.73034 8.83439 4.62855 9.06322 4.58947 9.31788C4.57998 9.37966 4.53891 9.3958 4.49276 9.41496C3.85575 9.67845 3.28454 9.50064 2.91492 8.92373C2.72393 8.6258 2.47134 8.40925 2.10569 8.34187C2.02819 8.32766 1.95201 8.33046 1.87628 8.35263C1.74821 8.39009 1.729 8.45617 1.82329 8.55283C1.86369 8.59437 1.90896 8.63441 1.95908 8.66304C2.24744 8.82729 2.45411 9.07162 2.55546 9.36868C2.77736 10.0203 3.43204 10.301 4.13286 10.2353C4.23685 10.2256 4.34151 10.2149 4.44352 10.1944C4.53052 10.177 4.5537 10.2018 4.55304 10.2864C4.55105 10.5836 4.55834 10.8809 4.55856 11.1784C4.55856 11.438 4.387 11.5577 4.13153 11.4735C3.63297 11.3095 3.16332 11.0852 2.73762 10.784C1.03878 9.58287 0.197095 7.95203 0.254724 5.91046C0.328913 3.28381 2.32759 1.05345 4.97896 0.588053C8.06111 0.0470943 11.0243 2.04733 11.6131 5.06641C12.1437 7.78649 10.5924 10.4825 7.9602 11.4337C7.62216 11.5558 7.37575 11.5032 7.39937 11.057C7.423 10.6142 7.40799 10.1697 7.41174 9.7258C7.41505 9.32584 7.34903 8.94784 7.03527 8.62688L7.03572 8.6271Z" fill="#BEC7E1"/>
</g>
</g>
</svg>
