<svg width="13" height="12" viewBox="0 0 13 12" fill="none" xmlns="http://www.w3.org/2000/svg">
<g id="Group 359">
<path id="Vector" d="M8.41545 6C8.41545 6.97213 7.60711 7.76 6.61019 7.76C5.61328 7.76 4.80493 6.97192 4.80493 6C4.80493 5.02808 5.61328 4.24 6.61019 4.24C7.60666 4.24108 8.41435 5.02851 8.41545 6ZM12.2516 3.58V8.42C12.2496 10.1202 10.8363 11.4981 9.09243 11.5H4.12796C2.38408 11.4981 0.970737 10.1202 0.96875 8.42V3.58C0.970516 1.87984 2.38386 0.501937 4.12774 0.5H9.09221C10.8361 0.501937 12.2494 1.87984 12.2514 3.58H12.2516ZM9.31808 6C9.31808 4.54202 8.10567 3.36 6.61019 3.36C5.11471 3.36 3.9023 4.54202 3.9023 6C3.9023 7.45798 5.11471 8.64 6.61019 8.64C8.10501 8.63828 9.31632 7.45734 9.31808 6ZM10.2207 3.14C10.2207 2.77556 9.91756 2.48 9.54374 2.48C9.16993 2.48 8.86677 2.77556 8.86677 3.14C8.86677 3.50444 9.16993 3.8 9.54374 3.8C9.91756 3.8 10.2207 3.50444 10.2207 3.14Z" fill="#BEC7E1"/>
</g>
</svg>
