<svg width="15" height="26" viewBox="0 0 15 26" fill="none" xmlns="http://www.w3.org/2000/svg">
<g id="Layer_1" clip-path="url(#clip0_1_1169)">
<path id="Vector" d="M7.42926 19.2083C7.43212 19.2083 7.43317 19.2046 7.43073 19.2031L1.99448 15.8995C1.53389 15.6196 1.0174 16.1662 1.3229 16.6102L7.02743 24.9013C7.22613 25.1901 7.65258 25.1901 7.85127 24.9013L13.5597 16.6046C13.865 16.1608 13.3493 15.6144 12.8886 15.8936L7.42779 19.2031C7.42534 19.2046 7.4264 19.2083 7.42926 19.2083ZM7.99216 1.23955C7.79928 0.908991 7.32172 0.908822 7.12861 1.23924L0.368785 12.8057C0.231337 13.0409 0.307437 13.3428 0.539935 13.4847L7.30071 17.6121C7.46036 17.7096 7.66106 17.7098 7.82091 17.6127L14.5803 13.5051C14.8133 13.3635 14.8899 13.0613 14.7525 12.8258L7.99216 1.23955Z" fill="#5A7FF2"/>
</g>
<defs>
<clipPath id="clip0_1_1169">
<rect width="15" height="25" fill="white" transform="translate(0 0.5)"/>
</clipPath>
</defs>
</svg>
