<svg width="18" height="18" viewBox="0 0 18 18" fill="none" xmlns="http://www.w3.org/2000/svg">
<g id="Layer_1" clip-path="url(#clip0_523_8530)">
<path id="Vector" d="M9 0.542969C4.30182 0.542969 0.5 4.34479 0.5 9.04297C0.5 13.3471 3.70682 16.8939 7.85636 17.458V12.0489H5.53818V9.59161H7.85636V7.7216C7.85636 5.58888 9.21636 4.41433 11.3027 4.41433C12.2995 4.41433 13.3427 4.5766 13.3427 4.5766V6.6707H12.1914C11.0555 6.6707 10.7077 7.32751 10.7077 7.99979V9.59161H13.2345L12.8327 12.0489H10.7077V17.373C14.5868 16.5848 17.5 13.1539 17.5 9.04297C17.5 4.34479 13.6982 0.542969 9 0.542969Z" fill="white"/>
</g>
<defs>
<clipPath id="clip0_523_8530">
<rect width="17" height="16.915" fill="white" transform="translate(0.5 0.542969)"/>
</clipPath>
</defs>
</svg>
