<svg width="20" height="18" viewBox="0 0 20 18" fill="none" xmlns="http://www.w3.org/2000/svg">
<g clip-path="url(#clip0_523_8524)">
<path d="M12.6899 0.296875H7.3099C3.7699 0.296875 0.899902 3.16687 0.899902 6.70687V11.2969C0.899902 14.8369 3.7699 17.7069 7.3099 17.7069H12.6899C16.2299 17.7069 19.0999 14.8369 19.0999 11.2969V6.70687C19.0999 3.16687 16.2299 0.296875 12.6899 0.296875ZM16.4999 9.25688C16.4999 11.3469 16.4999 12.3969 16.0699 13.1869C15.6999 13.8869 15.0999 14.4569 14.3599 14.8169C13.5299 15.2269 12.4299 15.2269 10.2499 15.2269H9.7299C7.5399 15.2269 6.4499 15.2269 5.6199 14.8169C4.8899 14.4569 4.2899 13.8869 3.9099 13.1869C3.4799 12.3869 3.4799 11.3469 3.4799 9.25688V8.75688C3.4799 6.66687 3.4799 5.61688 3.9099 4.82688C4.2799 4.12688 4.8799 3.55688 5.6199 3.19688C6.4499 2.78688 7.5499 2.78688 9.7299 2.78688H10.2499C12.4399 2.78688 13.5299 2.78688 14.3599 3.19688C15.0899 3.55688 15.6899 4.12688 16.0699 4.82688C16.4999 5.62688 16.4999 6.66687 16.4999 8.75688V9.25688Z" fill="white"/>
<path d="M9.99483 7.13281C8.91542 7.13281 8.0459 7.97233 8.0459 9.00174C8.0459 10.0311 8.91542 10.8707 9.99483 10.8707C11.0742 10.8707 11.9438 10.0311 11.9438 9.00174C11.9438 7.97233 11.0742 7.13281 9.99483 7.13281Z" fill="white"/>
<path d="M14.9123 5.38266C14.6624 4.91293 14.2626 4.53314 13.7729 4.29328C13.573 4.19334 13.2732 4.11339 12.7035 4.07341C12.1138 4.02344 11.3642 4.02344 10.2448 4.02344H9.72511C8.61572 4.02344 7.85614 4.02344 7.26646 4.07341C6.69678 4.11339 6.40694 4.20333 6.19705 4.29328C5.70732 4.53314 5.30754 4.91293 5.05768 5.38266C4.95773 5.57255 4.86778 5.85239 4.8278 6.40207C4.77783 6.96175 4.77783 7.68134 4.77783 8.75072V9.25044C4.77783 10.3198 4.77783 11.0394 4.8278 11.5991C4.87778 12.1488 4.95773 12.4186 5.05768 12.6185C5.30754 13.0882 5.70732 13.468 6.19705 13.7079C6.39694 13.8078 6.68678 13.8878 7.26646 13.9277C7.85614 13.9777 8.60573 13.9777 9.72511 13.9777H10.2448C11.3542 13.9777 12.1138 13.9777 12.7035 13.9277C13.2732 13.8878 13.563 13.7978 13.7729 13.7079C14.2626 13.468 14.6624 13.0882 14.9123 12.6185C15.0122 12.4286 15.1022 12.1488 15.1421 11.5991C15.1921 11.0394 15.1921 10.3198 15.1921 9.25044V8.75072C15.1921 7.68134 15.1921 6.96175 15.1421 6.40207C15.0922 5.85239 15.0122 5.58254 14.9123 5.38266ZM9.99497 12.1088C8.19595 12.1088 6.74675 10.7196 6.74675 9.00058C6.74675 7.28157 8.20595 5.89236 9.99497 5.89236C11.784 5.89236 13.2432 7.28157 13.2432 9.00058C13.2432 10.7196 11.784 12.1088 9.99497 12.1088ZM13.573 6.51201C13.0333 6.51201 12.5935 6.09225 12.5935 5.58254C12.5935 5.07283 13.0333 4.65308 13.573 4.65308C14.1127 4.65308 14.5525 5.07283 14.5525 5.58254C14.5525 6.09225 14.1127 6.51201 13.573 6.51201Z" fill="white"/>
</g>
<defs>
<clipPath id="clip0_523_8524">
<rect width="18.2" height="17.41" fill="white" transform="translate(0.899902 0.296875)"/>
</clipPath>
</defs>
</svg>
