<svg width="20" height="18" viewBox="0 0 20 18" fill="none" xmlns="http://www.w3.org/2000/svg">
<g id="Layer_1" clip-path="url(#clip0_1_1164)">
<g id="4GQiD5">
<path id="Vector" d="M0.00125 3.72485C0.16 3.36634 0.43625 3.12956 0.784375 2.93577C2.0575 2.22784 3.3225 1.50659 4.58375 0.778674C5.21625 0.414112 5.81875 0.400789 6.45937 0.776857C7.69687 1.50295 8.95 2.20483 10.2013 2.90973C10.705 3.19375 10.9725 3.59344 10.955 4.16935C10.9419 4.61264 10.945 5.05714 10.9563 5.50103C10.9613 5.7039 10.9006 5.84076 10.7088 5.94311C10.2256 6.20169 9.755 6.48026 9.27437 6.74309C8.98312 6.90236 8.9375 6.87571 8.93437 6.55838C8.93 6.15506 8.92875 5.75114 8.93375 5.34782C8.94063 4.80642 8.72188 4.4031 8.225 4.12756C7.5925 3.77693 6.97062 3.40752 6.35562 3.02903C5.77875 2.67476 5.21812 2.65114 4.62812 3.00238C4.00687 3.37179 3.3725 3.7194 2.73875 4.06822C2.23938 4.34315 1.995 4.74405 2.005 5.30664C2.01813 6.07331 2.01563 6.84059 2.00625 7.60726C2 8.12019 2.22375 8.5011 2.66688 8.76453C3.34125 9.16543 4.02187 9.55664 4.69562 9.95875C5.20625 10.2634 5.71 10.2809 6.22375 9.96965C8.61812 8.5223 11.1275 7.2651 13.5319 5.8341C14.1663 5.45622 14.7506 5.42836 15.3994 5.81049C16.6 6.51781 17.8206 7.19485 19.045 7.86282C19.5263 8.12564 19.8681 8.46901 20.0012 8.99344V14.0198C19.885 14.5673 19.5225 14.9027 19.0319 15.1698C17.7612 15.862 16.5106 16.5881 15.2456 17.2894C14.7394 17.5704 14.2162 17.5716 13.705 17.2839C12.39 16.5451 11.0769 15.8026 9.76 15.0669C9.23375 14.7725 8.965 14.3505 8.98812 13.7515C9.00437 13.3385 8.99813 12.9243 8.98812 12.5107C8.98375 12.3175 9.05188 12.1885 9.2275 12.0922C9.735 11.8143 10.2388 11.5296 10.74 11.2414C10.9475 11.1221 11.015 11.1826 11.0119 11.4013C11.0056 11.8252 11.005 12.2491 11.0119 12.6724C11.0212 13.198 11.2519 13.5947 11.7375 13.8569C12.3738 14.2009 13.0031 14.5576 13.6287 14.9197C14.2006 15.2504 14.7531 15.2709 15.33 14.9155C15.9444 14.5364 16.5794 14.1882 17.2069 13.8284C17.645 13.5771 17.8825 13.2204 17.8775 12.7136C17.8694 11.9063 17.8706 11.0991 17.8775 10.2918C17.8819 9.78131 17.6719 9.40221 17.2094 9.14666C16.5762 8.79663 15.9412 8.44902 15.3244 8.07356C14.7319 7.71263 14.1713 7.709 13.5669 8.05479C11.63 9.1618 9.6825 10.2519 7.73812 11.3467C7.20687 11.6459 6.67812 11.9493 6.14125 12.2376C5.68812 12.4804 5.21688 12.4786 4.76937 12.2297C3.39687 11.466 2.03125 10.6909 0.6625 9.9212C0.351875 9.74619 0.160625 9.47367 0 9.17512V3.72485H0.00125Z" fill="#B458BA"/>
</g>
</g>
<defs>
<clipPath id="clip0_1_1164">
<rect width="20" height="17" fill="white" transform="translate(0 0.5)"/>
</clipPath>
</defs>
</svg>
