<svg width="20" height="20" viewBox="0 0 20 20" fill="none" xmlns="http://www.w3.org/2000/svg">
<g id="Vector">
<path d="M4.31592 12.7317C4.43358 11.7998 4.83317 11.278 5.58616 10.7431C6.66357 10.0187 8.0094 10.4285 8.0094 10.4285V7.99756C8.33658 7.98956 8.6639 8.00811 8.98752 8.053V11.1814C8.98752 11.1814 7.64209 10.7716 6.56469 11.4964C5.8121 12.0309 5.41171 12.553 5.29445 13.4849C5.29077 13.991 5.39005 14.6524 5.84724 15.2244C5.7342 15.169 5.61899 15.1058 5.50159 15.0349C4.49446 14.388 4.31101 13.4175 4.31592 12.7317ZM14.5445 3.50279C13.8033 2.72595 13.5231 1.94161 13.4217 1.39062H14.3541C14.3541 1.39062 14.1682 2.83532 15.523 4.25604L15.5418 4.27514C15.1767 4.05544 14.8418 3.79611 14.5445 3.50279ZM19.0359 5.70523V8.77066C19.0359 8.77066 17.8462 8.72609 16.9657 8.51184C15.7363 8.21219 14.9461 7.7526 14.9461 7.7526C14.9461 7.7526 14.4003 7.42485 14.3561 7.402V13.7321C14.3561 14.0846 14.2552 14.9648 13.9476 15.699C13.5459 16.6594 12.9261 17.2897 12.8122 17.4186C12.8122 17.4186 12.0583 18.2707 10.7284 18.8446C9.52969 19.3622 8.47721 19.3491 8.16261 19.3622C8.16261 19.3622 6.34325 19.4311 4.7061 18.4134C4.35208 18.1891 4.02162 17.9351 3.71899 17.6546L3.72717 17.6602C5.36472 18.6779 7.18368 18.609 7.18368 18.609C7.49869 18.5959 8.55117 18.609 9.74951 18.0913C11.0782 17.5175 11.8332 16.6653 11.8332 16.6653C11.946 16.5365 12.5686 15.9061 12.9686 14.9454C13.2755 14.2116 13.3772 13.331 13.3772 12.9785V6.64913C13.4213 6.67235 13.9668 7.0001 13.9668 7.0001C13.9668 7.0001 14.7574 7.46006 15.9868 7.75934C16.8676 7.97359 18.057 8.01816 18.057 8.01816V5.61608C18.4639 5.70336 18.8108 5.72695 19.0359 5.70523Z" fill="white"/>
<path d="M18.057 5.61608V8.01816C18.057 8.01816 16.8676 7.97359 15.9868 7.75934C14.7574 7.46006 13.9668 7.0001 13.9668 7.0001C13.9668 7.0001 13.4213 6.67235 13.3772 6.64913V12.9785C13.3772 13.331 13.2755 14.2116 12.9686 14.9454C12.567 15.9061 11.9472 16.5365 11.8332 16.6653C11.8332 16.6653 11.0782 17.5175 9.74951 18.0913C8.55117 18.609 7.49869 18.5959 7.18368 18.609C7.18368 18.609 5.36472 18.6779 3.72717 17.6602L3.71899 17.6546C3.5461 17.4944 3.38374 17.3261 3.23195 17.1489C2.70938 16.5395 2.38907 15.8188 2.30858 15.6132V15.6106C2.17906 15.2532 1.90695 14.3951 1.94413 13.564C2.00991 12.0975 2.54922 11.1975 2.69182 10.972C3.06946 10.3571 3.56063 9.80692 4.14347 9.34599C4.65779 8.94825 5.24076 8.63179 5.86846 8.40958C6.54702 8.14868 7.27368 8.00884 8.0094 7.99756V10.4285C8.0094 10.4285 6.66316 10.0202 5.58616 10.7431C4.83317 11.278 4.43358 11.7998 4.31592 12.7317C4.31101 13.4175 4.49446 14.388 5.50159 15.0349C5.61899 15.1058 5.7342 15.169 5.84724 15.2244C6.02304 15.443 6.23658 15.6338 6.48009 15.7885C7.46311 16.3837 8.28679 16.4253 9.34009 16.0387C10.0424 15.7803 10.5711 15.1978 10.8163 14.5524C10.9703 14.1494 10.9682 13.7437 10.9682 13.3242V1.39062H13.4197C13.521 1.94161 13.8013 2.72595 14.5424 3.50279C14.8397 3.79611 15.1746 4.05544 15.5397 4.27514C15.6476 4.38189 16.1992 4.90965 16.9072 5.23365C17.2734 5.40113 17.6589 5.52945 18.057 5.61608Z" fill="white"/>
<path d="M5.86811 8.40779C5.24041 8.63 4.65744 8.94646 4.14312 9.3442C3.56009 9.80617 3.06904 10.3575 2.69188 10.9736C2.54928 11.1983 2.00997 12.0991 1.94419 13.5655C1.90701 14.3967 2.17912 15.2548 2.30864 15.6122V15.6148C2.39035 15.8185 2.70944 16.5392 3.23201 17.1505C3.3838 17.3277 3.54654 17.4968 3.71943 17.6569C3.16549 17.3057 2.67146 16.881 2.25348 16.3969C1.73541 15.7927 1.41591 15.0795 1.33256 14.869V14.8619C1.20263 14.5049 0.929708 13.6464 0.967705 12.8142C1.03349 11.3477 1.5728 10.4477 1.71539 10.2222C2.09245 9.60604 2.58351 9.05471 3.16663 8.59283C3.68085 8.19495 4.26384 7.87847 4.89162 7.65642C5.2832 7.50747 5.69112 7.39759 6.10835 7.32867C6.73712 7.22805 7.37931 7.21933 8.01106 7.30283V7.99577C7.27465 8.00682 6.54731 8.14666 5.86811 8.40779Z" fill="white"/>
<path d="M13.4217 1.39062L10.97 1.39034V13.3243C10.97 13.7438 10.97 14.1484 10.818 14.5525C10.5704 15.1975 10.0438 15.78 9.34184 16.0384C8.28814 16.4265 7.46446 16.3834 6.48184 15.7882C6.23792 15.6342 6.02339 15.4444 5.84692 15.2264C6.68409 15.6358 7.4334 15.6286 8.36168 15.287C9.0632 15.0286 9.59066 14.4461 9.83744 13.8008C9.99188 13.3977 9.98983 12.9921 9.98983 12.573V0.636719H13.3748C13.3748 0.636719 13.3372 0.933657 13.4217 1.39062ZM18.0571 4.9517L18.057 5.61608C17.6596 5.52931 17.2745 5.40071 16.909 5.23337C16.2009 4.90937 15.6497 4.38189 15.5418 4.27514C15.667 4.35048 15.7965 4.41873 15.9305 4.48012C16.7913 4.87416 17.6391 4.99178 18.0571 4.9517Z" fill="white"/>
</g>
</svg>
