<svg width="288" height="72" viewBox="0 0 288 72" fill="none" xmlns="http://www.w3.org/2000/svg">
<g clip-path="url(#clip0_267_3742)">
<path d="M205.385 28.0456C201.147 28.0456 198.116 29.5185 196.634 32.3044L195.833 33.8106V28.772H188.932V59.4102H196.187V41.1819C196.187 36.8298 198.516 34.3305 202.577 34.3305C206.638 34.3305 208.665 36.7632 208.665 41.002V59.4102H215.928V39.689C215.928 32.3977 211.985 28.0522 205.385 28.0522V28.0456ZM170.189 28.0456C161.627 28.0456 156.32 33.4707 156.32 42.2083V46.5071C156.32 54.9114 161.687 60.13 170.32 60.13C176.1 60.13 180.147 57.9773 182.693 53.5585L178.192 50.9259C176.31 53.4785 173.305 55.0581 170.32 55.0581C165.944 55.0581 163.34 52.3188 163.34 47.7201V46.5004H183.592V41.4219C183.592 33.2841 178.33 28.0389 170.189 28.0389V28.0456ZM176.998 41.5552H163.32V40.822C163.32 35.7768 165.761 32.9975 170.182 32.9975C174.604 32.9975 176.992 35.7368 176.992 40.3355V41.5618L176.998 41.5552ZM288.006 23.7268V17.8684H262.906V23.7268H271.704V53.5318H262.906V59.3902H288.006V53.5318H279.202V23.7268H288.006ZM97.6705 17.022C86.4588 17.022 79.4917 24.12 79.4917 35.5502V41.7284C79.4917 53.1519 86.4588 60.2566 97.6705 60.2566C108.882 60.2566 115.849 53.1586 115.849 41.7284V35.5502C115.849 24.1067 108.869 17.022 97.6705 17.022ZM108.351 42.1483C108.351 49.7396 104.46 54.085 97.6705 54.085C90.8805 54.085 86.9902 49.7329 86.9902 42.1483V35.1236C86.9902 27.5324 90.8871 23.1869 97.6705 23.1869C104.454 23.1869 108.351 27.5391 108.351 35.1236V42.1483ZM138.64 28.0456C134.828 28.0456 131.535 29.6451 129.816 32.3311L129.036 33.5507V28.772H122.134V69.9473H129.396V55.0314L130.171 56.2044C131.804 58.6637 134.992 60.13 138.706 60.13C144.964 60.13 151.275 55.9778 151.275 46.6937V41.4818C151.275 34.7904 147.385 28.0456 138.64 28.0456ZM144.013 46.3338C144.013 51.2725 141.179 54.3383 136.619 54.3383C132.368 54.3383 129.396 51.0925 129.396 46.4538V41.8484C129.396 37.1497 132.388 33.844 136.678 33.844C141.205 33.844 144.019 36.9098 144.019 41.8484V46.3338H144.013ZM235.989 17.8684L221.34 59.4035H228.714L231.515 50.4993H248.349L248.375 50.586L251.15 59.4035H258.524L243.855 17.8617H235.983L235.989 17.8684ZM233.319 44.6476L239.925 23.6468L246.466 44.6476H233.319Z" fill="black"/>
<path d="M65.2948 29.465C66.9021 24.5597 66.351 19.1946 63.7794 14.7358C59.9088 7.90436 52.1413 4.38533 44.551 6.03821C41.1789 2.16595 36.3243 -0.0334391 31.24 -0.000115018C23.4791 -0.0201095 16.5907 5.05848 14.2093 12.5631C9.22339 13.6028 4.92635 16.7752 2.40717 21.2606C-1.48313 28.0854 -0.597477 36.6764 4.60489 42.5281C3.00416 47.4267 3.55523 52.7852 6.12034 57.244C9.98439 64.0887 17.765 67.6144 25.3619 65.9616C28.7339 69.8205 33.582 72.0199 38.6597 71.9999C46.4207 72.0199 53.309 66.9413 55.6904 59.4367C60.6698 58.397 64.9734 55.2245 67.486 50.7391C71.3894 43.921 70.4972 35.3167 65.2948 29.465ZM38.6597 67.3078C35.5501 67.3078 32.5455 66.2015 30.1641 64.1754C30.269 64.1154 30.4724 64.0154 30.5905 63.9355L44.7018 55.6578C45.4235 55.2445 45.863 54.4647 45.863 53.6183V33.4039L51.8264 36.903C51.892 36.9363 51.9379 36.9963 51.9445 37.0696V53.8049C51.9445 61.2562 46.0008 67.3012 38.6663 67.3078H38.6597ZM10.1353 54.9313C8.58047 52.1987 8.01628 48.9996 8.54767 45.8871C8.65264 45.9538 8.83633 46.0671 8.96753 46.1404L23.0854 54.4181C23.8005 54.8446 24.6862 54.8446 25.4012 54.4181L42.6222 44.3009V51.2923C42.6222 51.3656 42.596 51.4389 42.5369 51.4789L28.2681 59.8433C21.9177 63.5556 13.8025 61.3495 10.1287 54.9046V54.918L10.1353 54.9313ZM6.43523 23.6267C7.98348 20.8941 10.4305 18.7947 13.3499 17.7083V34.7502C13.3499 35.59 13.7894 36.3698 14.511 36.7897L31.7386 46.8935L25.7555 50.4059C25.6965 50.4459 25.6177 50.4525 25.5521 50.4259L11.2899 42.0549C4.94603 38.3226 2.76799 30.0782 6.42867 23.6267H6.44179H6.43523ZM55.428 35.2101L38.2005 25.1062L44.1573 21.6072C44.2164 21.5672 44.2951 21.5606 44.3607 21.5872L58.6229 29.9582C63.084 32.5775 65.6491 37.5761 65.2095 42.7947C64.77 48.0065 61.4045 52.492 56.5695 54.3048V37.2629C56.5761 36.4164 56.1366 35.6367 55.4149 35.2168H55.4215L55.428 35.2101ZM61.3652 26.1326C61.2602 26.066 61.0765 25.9527 60.9453 25.8794L46.8274 17.6017C46.1123 17.1751 45.2267 17.1751 44.5116 17.6017L27.2841 27.7055V20.7141C27.2841 20.6408 27.3169 20.5742 27.3694 20.5275L41.6316 12.1632C46.0926 9.55056 51.6427 9.7905 55.861 12.7897C60.0859 15.7822 62.2246 20.9874 61.352 26.146L61.3652 26.1326ZM24.0367 38.6025L18.0733 35.1035C18.0143 35.0701 17.9684 35.0035 17.9618 34.9368V18.2015C17.9618 12.9629 20.9336 8.20427 25.6046 5.97822C30.269 3.75218 35.7797 4.47864 39.7422 7.82438C39.6372 7.88436 39.447 7.98433 39.3158 8.06431L25.2044 16.342C24.4828 16.7619 24.0433 17.535 24.0433 18.3814V38.5958L24.0367 38.6025ZM27.2775 31.5045L34.9531 27.0057L42.6222 31.5045V40.502L34.9466 45.0007L27.271 40.502V31.5045H27.2775Z" fill="black"/>
</g>
<defs>
<clipPath id="clip0_267_3742">
<rect width="288" height="72" fill="white"/>
</clipPath>
</defs>
</svg>
