<svg width="40" height="29" viewBox="0 0 40 29" fill="none" xmlns="http://www.w3.org/2000/svg">
<g id="Layer_1" clip-path="url(#clip0_242_7646)">
<path id="Vector" d="M0 25.2989V8.14551H40V25.2989C39.8678 25.9227 39.6881 26.5253 39.2917 27.0381C38.4935 28.0636 37.4257 28.4547 36.1517 28.4547C25.3839 28.4442 14.6161 28.4547 3.85357 28.4547C3.77428 28.4547 3.69499 28.4547 3.62099 28.4547C2.41047 28.4442 1.42725 27.979 0.69248 27.0169C0.306594 26.5095 0.132153 25.9174 0.00528611 25.3095L0 25.2989ZM17.201 18.1944C17.201 17.3486 17.2169 16.5081 17.201 15.6624C17.1534 13.6854 15.5729 12.0995 13.5642 11.9885C11.6982 11.8881 9.8956 13.3365 9.70001 15.2342C9.50443 17.1319 9.62601 19.0508 9.65244 20.959C9.66301 21.6145 10.2181 22.0533 10.8577 22.0321C11.4867 22.011 11.9572 21.5299 11.973 20.8639C11.9836 20.2401 11.9836 19.6164 11.973 18.9926C11.973 18.7494 12.0206 18.649 12.2902 18.6543C13.0461 18.6702 13.802 18.6702 14.5527 18.6543C14.8223 18.649 14.8751 18.7494 14.8698 18.9926C14.854 19.5899 14.854 20.1873 14.8698 20.7846C14.8857 21.5405 15.3826 22.048 16.0751 22.0321C16.7464 22.0215 17.201 21.5194 17.2116 20.7635C17.2169 19.9071 17.2116 19.0508 17.2116 18.1891L17.201 18.1944ZM18.8291 17.0103C18.8291 18.2578 18.8291 19.5054 18.8291 20.7529C18.8291 21.5194 19.3049 22.0321 19.9921 22.0374C20.6846 22.0374 21.1603 21.5299 21.1709 20.7687C21.1762 20.182 21.1867 19.6005 21.1709 19.0138C21.1603 18.7494 21.2237 18.6437 21.5092 18.6596C21.9744 18.686 22.4448 18.6702 22.9153 18.6596C23.8139 18.649 24.6438 18.4111 25.3046 17.7768C26.3301 16.7989 26.6684 15.6095 26.2138 14.2615C25.7751 12.9717 24.8394 12.2052 23.4756 12.0361C22.3232 11.8934 21.1603 11.9779 20.0079 11.9885C19.2943 11.9938 18.8397 12.5013 18.8344 13.2307C18.8291 14.4888 18.8344 15.7522 18.8344 17.0103H18.8291ZM30.3793 17.0262C30.3793 15.8157 30.3793 14.6104 30.3793 13.3999C30.3793 13.2307 30.3687 13.0616 30.3317 12.8977C30.2048 12.3321 29.6868 11.9462 29.1318 11.9885C28.5239 12.0361 28.0481 12.496 28.0428 13.1092C28.0322 15.7205 28.0322 18.3318 28.0428 20.9432C28.0428 21.5828 28.582 22.048 29.2269 22.0374C29.8982 22.0268 30.3687 21.5194 30.374 20.7687C30.3846 19.5212 30.374 18.2737 30.374 17.0262H30.3793Z" fill="#277EFF"/>
<path id="Vector_2" d="M0 3.15581C0.126867 2.54791 0.301308 1.95057 0.687194 1.44839C1.42196 0.481036 2.40518 0.0158583 3.6157 0.00528611C3.69499 0.00528611 3.77428 0.00528611 3.84829 0.00528611C14.6161 0 25.3839 0.0105722 36.1517 0C37.4257 0 38.4935 0.385886 39.2917 1.41668C39.6934 1.92943 39.8731 2.53205 40 3.15581V5.80944H0V3.15581Z" fill="#277EFF"/>
<path id="Vector_3" d="M13.4395 16.3231C13.0378 16.3231 12.636 16.3231 12.2343 16.3231C12.1233 16.3231 12.0123 16.3496 11.9647 16.1804C11.711 15.2078 12.6255 14.1928 13.6246 14.3514C14.4756 14.4889 15.0359 15.3241 14.8615 16.1646C14.8245 16.3337 14.7241 16.3231 14.6078 16.3231C14.2166 16.3231 13.8307 16.3231 13.4395 16.3231Z" fill="#277EFF"/>
<path id="Vector_4" d="M22.2457 16.3237C22.0237 16.3237 21.8017 16.3026 21.585 16.3237C21.2731 16.3554 21.1409 16.2708 21.1674 15.9325C21.1991 15.4938 21.1885 15.0497 21.1674 14.611C21.1568 14.3625 21.2466 14.2991 21.4792 14.3097C21.9867 14.3255 22.4889 14.3044 22.9963 14.3203C23.6201 14.3361 24.0641 14.7696 24.0589 15.3299C24.0589 15.885 23.599 16.3026 22.9805 16.3237C22.732 16.329 22.4889 16.3237 22.2404 16.3237H22.2457Z" fill="#277EFF"/>
</g>
<defs>
<clipPath id="clip0_242_7646">
<rect width="40" height="28.4551" fill="white"/>
</clipPath>
</defs>
</svg>
