<svg width="40" height="40" viewBox="0 0 40 40" fill="none" xmlns="http://www.w3.org/2000/svg">
<g id="Layer_1" clip-path="url(#clip0_242_7640)">
<g id="Vector">
<path d="M7.92392 19.8935C10.2343 19.3461 11.6261 16.9522 10.9951 14.5769C10.9209 14.2799 10.9487 14.1036 11.1807 13.8995C13.3612 12.016 15.5231 10.1231 17.685 8.22102C17.852 8.07257 17.9819 8.04473 18.186 8.14679C19.6984 8.86125 21.1459 8.72207 22.5006 7.72926C22.7047 7.5808 22.8346 7.59008 23.0387 7.7107C24.8852 8.80557 26.7409 9.89117 28.5966 10.9768C28.8286 11.1159 28.9028 11.2551 28.875 11.5335C28.6337 13.8902 30.4245 16.0614 32.6978 16.1913C35.203 16.3305 37.1979 14.4562 37.2071 11.951C37.2071 10.3365 36.3721 8.87052 34.9617 8.13752C33.4586 7.35811 31.9833 7.47873 30.5915 8.45299C30.3595 8.62 30.2018 8.64784 29.9513 8.49938C28.1234 7.40451 26.277 6.32819 24.4398 5.26115C24.2357 5.14981 24.1336 5.03847 24.1522 4.75083C24.2821 2.90439 23.5583 1.47549 21.981 0.556908C20.5057 -0.296723 18.6592 -0.129708 17.3695 0.993001C15.987 2.18994 15.5138 3.72091 15.987 5.52095C16.0612 5.79003 16.0241 5.93849 15.82 6.12406C13.6581 7.99834 11.5055 9.88189 9.35282 11.7747C9.13013 11.9696 8.98168 11.9789 8.7126 11.8582C7.16307 11.1716 5.68778 11.3293 4.37022 12.4057C3.08049 13.4541 2.57017 14.8831 2.86708 16.5346C3.30318 18.9564 5.59499 20.4688 7.91464 19.9213L7.92392 19.8935Z" fill="#277EFF"/>
<path d="M39.1 37.0218H38.2835C38.302 36.9661 38.3206 36.9011 38.3206 36.8455V22.575C38.3206 22.2039 38.0144 21.8977 37.6432 21.8977H28.6987C28.3275 21.8977 28.0213 22.2039 28.0213 22.575V36.8455C28.0213 36.9104 28.0399 36.9661 28.0585 37.0218H25.1079C25.1264 36.9568 25.1543 36.8826 25.1543 36.8084V18.8079C25.1543 18.4182 24.8388 18.1027 24.4491 18.1027H15.5602C15.1705 18.1027 14.855 18.4182 14.855 18.8079V36.8084C14.855 36.8826 14.8736 36.9568 14.9014 37.0218H11.9879C12.0158 36.9383 12.0343 36.8547 12.0343 36.7712V26.0266C12.0343 25.6184 11.7003 25.2843 11.292 25.2843H2.47738C2.06913 25.2843 1.7351 25.6184 1.7351 26.0266V36.7712C1.7351 36.864 1.75365 36.9475 1.78149 37.0218H0.900023C0.408258 37.0218 0 37.4207 0 37.9218V39.1094C0 39.6012 0.398979 40.0095 0.900023 40.0095H39.1C39.5917 40.0095 40 39.6105 40 39.1094V37.9218C40 37.43 39.601 37.0218 39.1 37.0218Z" fill="#277EFF"/>
</g>
</g>
<defs>
<clipPath id="clip0_242_7640">
<rect width="40" height="40" fill="white"/>
</clipPath>
</defs>
</svg>
