<svg width="15" height="16" viewBox="0 0 15 16" fill="none" xmlns="http://www.w3.org/2000/svg">
<g id="Group 1069">
<path id="Vector" d="M2.8125 10.3438V4.25H1.875C0.839534 4.25 0 5.08953 0 6.125V13.625C0 14.6605 0.839534 15.5 1.875 15.5H9.375C10.4105 15.5 11.25 14.6605 11.25 13.625V12.6875H5.15625C4.12078 12.6875 2.8125 11.3792 2.8125 10.3438ZM13.125 0.5H5.625C4.58953 0.5 3.75 1.33953 3.75 2.375V9.875C3.75 10.9105 4.58953 11.75 5.625 11.75H13.125C14.1605 11.75 15 10.9105 15 9.875V2.375C15 1.33953 14.1605 0.5 13.125 0.5Z" fill="#277EFF"/>
</g>
</svg>
