<svg width="15" height="17" viewBox="0 0 15 17" fill="none" xmlns="http://www.w3.org/2000/svg">
<g id="Isolation_Mode" clip-path="url(#clip0_1_266)">
<path id="Vector" d="M14.5899 0.806641H0.404313C0.184829 0.806641 0 0.985693 0 1.20518V12.2891C0 12.5086 0.184829 12.6877 0.404313 12.6877H1.9176C2.14286 12.6877 2.32191 12.8667 2.32191 13.0862V15.8009C2.32191 16.1012 2.65114 16.2918 2.9226 16.1474L4.71313 15.2002C4.83442 15.1366 4.97882 15.1366 5.10012 15.2002L6.89064 16.1474C7.16211 16.2918 7.49134 16.1012 7.49134 15.8009V13.0862C7.49134 12.8667 7.67616 12.6877 7.89565 12.6877H14.5784C14.8036 12.6877 14.9827 12.5086 14.9827 12.2891V1.20518C14.9827 0.985693 14.7978 0.806641 14.5784 0.806641H14.5899Z" fill="#277EFF"/>
</g>
<defs>
<clipPath id="clip0_1_266">
<rect width="15" height="15.387" fill="white" transform="translate(0 0.806641)"/>
</clipPath>
</defs>
</svg>
