<svg width="218" height="31" viewBox="0 0 218 31" fill="none" xmlns="http://www.w3.org/2000/svg">
<g clip-path="url(#clip0_496_1751)">
<path d="M0 15.5171C0 16.9444 0.182036 18.326 0.546109 19.639C0.910182 20.9521 1.42216 22.1853 2.09342 23.3271C2.7533 24.4689 3.56109 25.5193 4.49402 26.4556C5.42696 27.3919 6.47367 28.214 7.6114 28.8877C8.74913 29.5613 9.98925 30.0866 11.309 30.4519C12.6288 30.8173 14.0054 31 15.4276 31C17.5551 31 19.5803 30.589 21.4462 29.7783C23.312 28.9676 24.9617 27.8486 26.3611 26.4556C27.7606 25.0626 28.8755 23.407 29.6833 21.5344C30.4911 19.6619 30.9121 17.6409 30.9121 15.5057C30.9121 13.3705 30.5025 11.3381 29.6833 9.46556C28.8755 7.593 27.7492 5.93739 26.3611 4.53297C24.9617 3.12855 23.312 2.00958 21.4462 1.21031C19.5689 0.41105 17.5438 0 15.4162 0C13.9827 0 12.5946 0.182689 11.2863 0.548066C9.97787 0.913444 8.73775 1.43867 7.60002 2.11234C6.46229 2.786 5.41558 3.6081 4.48265 4.54438C3.54971 5.49208 2.74192 6.54254 2.08204 7.69576C1.42216 8.84899 0.898805 10.0936 0.534732 11.3952C0.182036 12.7083 0 14.0899 0 15.5171ZM5.19942 11.1669C5.77966 9.81952 6.57607 8.62063 7.56589 7.62726C8.56709 6.62247 9.75033 5.8232 11.0815 5.2523C12.4126 4.66998 13.8689 4.38453 15.4048 4.38453C16.9408 4.38453 18.4084 4.6814 19.7623 5.2523C21.1162 5.83462 22.3108 6.63389 23.312 7.63867C24.3132 8.63204 25.121 9.83094 25.6899 11.1783C26.2701 12.5256 26.5546 13.9871 26.5546 15.5285C26.5546 17.07 26.2588 18.5429 25.6899 19.9017C25.1096 21.2604 24.3132 22.4593 23.312 23.4527C22.3108 24.4575 21.1162 25.2567 19.7623 25.8276C18.4084 26.4099 16.9521 26.6954 15.4048 26.6954C13.8575 26.6954 12.4126 26.3985 11.0815 25.8276C9.75033 25.2453 8.55571 24.446 7.56589 23.4527C6.56469 22.4479 5.76828 21.2604 5.19942 19.9017C4.61917 18.5429 4.33474 17.0814 4.33474 15.5285C4.33474 13.9871 4.63055 12.5256 5.19942 11.1783V11.1669Z" fill="#DDF2FD"/>
<path d="M1.71875 15.5286C1.71875 16.4991 1.8439 17.4468 2.0942 18.3488C2.3445 19.2508 2.6972 20.0958 3.15229 20.8722C3.60738 21.6486 4.15349 22.368 4.79061 23.0188C5.42774 23.6582 6.14451 24.2177 6.91817 24.6858C7.69182 25.1426 8.54512 25.5079 9.44392 25.7477C10.3427 25.9989 11.287 26.1245 12.2655 26.1245C13.7218 26.1245 15.1098 25.8391 16.3841 25.291C17.6583 24.7429 18.7847 23.9779 19.7404 23.0188C20.696 22.0597 21.4583 20.9293 22.0158 19.6619C22.5733 18.3831 22.8577 16.9901 22.8577 15.54C22.8577 14.0899 22.5733 12.6855 22.0158 11.4067C21.4583 10.1278 20.696 8.99744 19.7404 8.03833C18.7847 7.07921 17.6583 6.3142 16.3841 5.76613C15.1098 5.21807 13.7218 4.93262 12.2655 4.93262C11.287 4.93262 10.3313 5.05822 9.44392 5.30941C8.54512 5.56061 7.7032 5.91457 6.92954 6.38271C6.15589 6.83943 5.43912 7.39892 4.80199 8.04974C4.16486 8.70057 3.61876 9.41991 3.16366 10.1963C2.70857 10.9842 2.35588 11.8291 2.10558 12.7311C1.85528 13.6332 1.73013 14.5809 1.73013 15.5514L1.71875 15.5286ZM5.48463 12.6398C5.87146 11.7378 6.39481 10.9499 7.05469 10.2877C7.71457 9.62543 8.49961 9.08879 9.38703 8.71199C10.2745 8.3352 11.2302 8.14109 12.2541 8.14109C13.2781 8.14109 14.2451 8.3352 15.1439 8.72341C16.0427 9.11162 16.8278 9.63685 17.499 10.2991C18.1589 10.9613 18.6936 11.7492 19.0805 12.6512C19.4559 13.5418 19.6493 14.5124 19.6493 15.54C19.6493 16.5676 19.4559 17.5381 19.0805 18.4288C18.6936 19.3308 18.1703 20.1186 17.499 20.7809C16.8278 21.4431 16.0427 21.9798 15.1439 22.3566C13.3463 23.1216 11.1619 23.1216 9.38703 22.3566C8.49961 21.9683 7.71457 21.4431 7.05469 20.7809C6.39481 20.1186 5.87146 19.3308 5.48463 18.4288C5.10918 17.5267 4.91577 16.5562 4.91577 15.54C4.91577 14.5124 5.10918 13.5418 5.48463 12.6512V12.6398Z" fill="#DDF2FD"/>
<path d="M8.69106 15.5054C8.69106 16.0763 8.75933 16.6358 8.90723 17.1611C9.05514 17.6863 9.25993 18.1887 9.53298 18.6454C9.79466 19.1021 10.1246 19.5246 10.4887 19.9014C10.8641 20.2782 11.2851 20.6093 11.7402 20.8719C12.1953 21.146 12.6959 21.3515 13.2192 21.4999C13.754 21.6483 14.3114 21.7169 14.8689 21.7169C15.7222 21.7169 16.53 21.557 17.2923 21.2259C18.0432 20.9062 18.7031 20.4495 19.2606 19.89C19.818 19.3305 20.2731 18.6682 20.5917 17.9146C20.9216 17.1611 21.0809 16.3504 21.0809 15.494C21.0809 14.6377 20.9103 13.8156 20.5917 13.062C20.2618 12.3084 19.818 11.6461 19.2606 11.0867C18.7031 10.5272 18.0318 10.0704 17.2923 9.75074C16.5414 9.43104 15.7336 9.25977 14.8689 9.25977C14.2887 9.25977 13.7312 9.32827 13.2078 9.47671C12.6845 9.62514 12.1839 9.83067 11.7288 10.1047C11.2737 10.3787 10.8527 10.7099 10.4773 11.0867C10.1018 11.4634 9.78328 11.8859 9.51023 12.3426C9.24855 12.7994 9.03238 13.3018 8.89586 13.827C8.74795 14.3522 8.67969 14.9117 8.67969 15.4826L8.69106 15.5054ZM11.1827 13.9297C11.3875 13.4388 11.6833 13.0049 12.036 12.6509C12.4001 12.2855 12.821 12.0001 13.3102 11.7946C13.7881 11.589 14.3114 11.4863 14.8689 11.4863C15.4264 11.4863 15.9498 11.589 16.439 11.7946C16.9282 12.0001 17.3605 12.297 17.7246 12.6509C18.0887 13.0163 18.3731 13.4388 18.5893 13.9297C18.7941 14.4093 18.8965 14.946 18.8965 15.5054C18.8965 16.0649 18.7941 16.6016 18.5893 17.0811C18.3845 17.5721 18.0887 18.006 17.7246 18.36C17.3605 18.7253 16.9282 19.0108 16.439 19.2163C15.4605 19.6274 14.2659 19.6388 13.2989 19.2163C12.8096 19.0108 12.3887 18.7139 12.0246 18.36C11.6605 17.9946 11.3761 17.5721 11.1713 17.0697C10.9665 16.5787 10.8641 16.0535 10.8641 15.494C10.8641 14.9345 10.9665 14.4093 11.1713 13.9183L11.1827 13.9297Z" fill="#DDF2FD"/>
<path d="M12.6658 12.2852C14.4292 12.2852 15.8628 13.7238 15.8628 15.4936C15.8628 17.2634 14.4292 18.7021 12.6658 18.7021C10.9023 18.7021 9.46875 17.2634 9.46875 15.4936C9.46875 13.7238 10.9023 12.2852 12.6658 12.2852Z" fill="#DDF2FD"/>
<path d="M43.1532 23.2475C41.7424 22.4939 40.6388 21.4549 39.831 20.1075C39.0232 18.7602 38.625 17.2416 38.625 15.5517C38.625 13.8619 39.0232 12.3318 39.831 10.9959C40.6388 9.64861 41.7424 8.60956 43.1532 7.85597C44.5639 7.10238 46.1568 6.72559 47.9316 6.72559C49.4789 6.72559 50.867 6.99962 52.1185 7.54769C53.3586 8.09575 54.3939 8.89501 55.2131 9.92264L52.164 12.6858C51.0717 11.3613 49.7406 10.6991 48.1819 10.6991C47.2604 10.6991 46.4412 10.9046 45.7244 11.3042C45.0077 11.7039 44.4502 12.2748 44.052 13.0169C43.6538 13.7591 43.4603 14.5926 43.4603 15.5517C43.4603 16.5109 43.6538 17.3558 44.052 18.0865C44.4502 18.8173 45.0077 19.3882 45.7244 19.7993C46.4412 20.1989 47.2604 20.4044 48.1819 20.4044C49.7406 20.4044 51.0717 19.7422 52.164 18.4177L55.2131 21.1808C54.3939 22.2199 53.3586 23.0077 52.1185 23.5558C50.8783 24.1039 49.4789 24.3779 47.9316 24.3779C46.1568 24.3779 44.5639 24.0011 43.1532 23.2475Z" fill="#DDF2FD"/>
<path d="M64.7234 19.5137H62.118V24.0239H57.3281V7.05664H65.0647C66.6006 7.05664 67.9204 7.30784 69.0581 7.82165C70.1844 8.33546 71.0605 9.0548 71.6635 10.0025C72.2779 10.9502 72.5851 12.0577 72.5851 13.3366C72.5851 14.6154 72.3006 15.6316 71.7318 16.5565C71.1629 17.4813 70.3437 18.1892 69.2743 18.703L72.9264 24.0353H67.8066L64.7347 19.5251L64.7234 19.5137ZM66.9988 11.4868C66.4982 11.053 65.7587 10.836 64.7802 10.836H62.118V15.8029H64.7802C65.7587 15.8029 66.5096 15.5859 66.9988 15.1635C67.4994 14.7296 67.7497 14.1244 67.7497 13.3366C67.7497 12.5487 67.4994 11.9321 66.9988 11.4983V11.4868Z" fill="#DDF2FD"/>
<path d="M78.9252 23.2253C77.5031 22.4603 76.3767 21.4099 75.5689 20.074C74.7611 18.738 74.3516 17.2194 74.3516 15.541C74.3516 13.8625 74.7611 12.3439 75.5689 11.008C76.3881 9.6607 77.5031 8.61024 78.9252 7.85665C80.3474 7.10306 81.963 6.71484 83.7492 6.71484C85.5354 6.71484 87.1396 7.09164 88.5732 7.85665C89.9953 8.62166 91.1217 9.67212 91.9295 11.008C92.7486 12.3554 93.1468 13.8625 93.1468 15.541C93.1468 17.2194 92.7372 18.738 91.9295 20.074C91.1217 21.4099 89.9953 22.4718 88.5732 23.2253C87.151 23.9789 85.5354 24.3671 83.7492 24.3671C81.963 24.3671 80.3588 23.9904 78.9252 23.2253ZM86.0702 19.7771C86.7642 19.3775 87.3103 18.8066 87.7085 18.0644C88.1067 17.3222 88.3115 16.4887 88.3115 15.5296C88.3115 14.5705 88.1067 13.7369 87.7085 12.9948C87.3103 12.264 86.7528 11.6931 86.0702 11.2821C85.3761 10.8824 84.6025 10.6769 83.7492 10.6769C82.8959 10.6769 82.1222 10.8824 81.4282 11.2821C80.7342 11.6817 80.1881 12.2526 79.7899 12.9948C79.3917 13.7369 79.1869 14.5705 79.1869 15.5296C79.1869 16.4887 79.3917 17.3336 79.7899 18.0644C80.1881 18.7951 80.7456 19.366 81.4282 19.7771C82.1222 20.1767 82.8959 20.3822 83.7492 20.3822C84.6025 20.3822 85.3761 20.1767 86.0702 19.7771Z" fill="#DDF2FD"/>
<path d="M97.6167 23.8645C96.3311 23.5219 95.2843 23.0766 94.4766 22.5057L96.0466 18.9661C96.8089 19.4685 97.685 19.8681 98.6862 20.1764C99.6874 20.4847 100.666 20.6331 101.633 20.6331C103.465 20.6331 104.386 20.1764 104.386 19.2516C104.386 18.7606 104.124 18.4066 103.601 18.1668C103.078 17.9385 102.236 17.6873 101.075 17.4247C99.8011 17.1506 98.743 16.8538 97.8897 16.5341C97.0364 16.2144 96.3083 15.712 95.6939 15.0155C95.0796 14.319 94.7724 13.3827 94.7724 12.2066C94.7724 11.1676 95.0568 10.2427 95.6143 9.4092C96.1718 8.57568 97.0251 7.91344 98.14 7.43388C99.255 6.9429 100.632 6.70312 102.259 6.70312C103.374 6.70312 104.466 6.82872 105.547 7.07992C106.627 7.33112 107.572 7.6965 108.402 8.18747L106.923 11.7499C105.308 10.8821 103.749 10.4368 102.236 10.4368C101.28 10.4368 100.598 10.5738 100.154 10.8593C99.7215 11.1447 99.5053 11.5101 99.5053 11.9668C99.5053 12.4236 99.767 12.7547 100.279 12.9831C100.791 13.2114 101.621 13.4398 102.771 13.691C104.056 13.965 105.126 14.2619 105.968 14.5702C106.81 14.8899 107.549 15.3923 108.163 16.0773C108.789 16.7624 109.096 17.6987 109.096 18.8748C109.096 19.891 108.812 20.8158 108.254 21.6379C107.697 22.46 106.844 23.1223 105.717 23.6133C104.591 24.1042 103.214 24.3554 101.61 24.3554C100.245 24.3554 98.9137 24.1842 97.6167 23.8416V23.8645Z" fill="#DDF2FD"/>
<path d="M113.25 23.8645C111.964 23.5219 110.917 23.0766 110.109 22.5057L111.679 18.9661C112.442 19.4685 113.318 19.8681 114.319 20.1764C115.32 20.4847 116.299 20.6331 117.266 20.6331C119.097 20.6331 120.019 20.1764 120.019 19.2516C120.019 18.7606 119.757 18.4066 119.234 18.1668C118.711 17.9385 117.869 17.6873 116.708 17.4247C115.434 17.1506 114.376 16.8538 113.523 16.5341C112.669 16.2144 111.941 15.712 111.327 15.0155C110.712 14.319 110.405 13.3827 110.405 12.2066C110.405 11.1676 110.69 10.2427 111.247 9.4092C111.816 8.57568 112.658 7.91344 113.773 7.43388C114.888 6.9429 116.264 6.70312 117.891 6.70312C119.006 6.70312 120.099 6.82872 121.179 7.07992C122.26 7.33112 123.205 7.6965 124.035 8.18747L122.556 11.7499C120.941 10.8821 119.382 10.4368 117.869 10.4368C116.913 10.4368 116.23 10.5738 115.787 10.8593C115.354 11.1447 115.138 11.5101 115.138 11.9668C115.138 12.4236 115.4 12.7547 115.912 12.9831C116.424 13.2114 117.254 13.4398 118.403 13.691C119.689 13.965 120.759 14.2619 121.612 14.5702C122.465 14.8784 123.193 15.3923 123.808 16.0773C124.422 16.7624 124.741 17.6987 124.741 18.8748C124.741 19.891 124.456 20.8158 123.899 21.6379C123.33 22.46 122.488 23.1223 121.362 23.6133C120.235 24.1042 118.858 24.3554 117.254 24.3554C115.889 24.3554 114.558 24.1842 113.261 23.8416L113.25 23.8645Z" fill="#DDF2FD"/>
<path d="M143.752 7.05664V24.0353H139.815L132.352 14.9922V24.0353H127.664V7.05664H131.601L139.064 16.0997V7.05664H143.752Z" fill="#DDF2FD"/>
<path d="M160.717 20.313V24.0239H147.133V7.05664H160.399V10.7675H151.866V13.6334H159.386V17.2187H151.866V20.3244H160.717V20.313Z" fill="#DDF2FD"/>
<path d="M166.985 10.8589H161.785V7.05664H176.94V10.8589H171.763V24.0353H166.973V10.8589H166.985Z" fill="#DDF2FD"/>
<path d="M178.727 7.05664H183.516V24.0353H178.727V7.05664Z" fill="#DDF2FD"/>
<path d="M190.583 23.2485C189.172 22.4949 188.068 21.4558 187.261 20.1085C186.453 18.7612 186.055 17.2426 186.055 15.5527C186.055 13.8628 186.453 12.3328 187.261 10.9969C188.068 9.64958 189.172 8.61054 190.583 7.85695C191.994 7.10336 193.586 6.72656 195.361 6.72656C196.909 6.72656 198.297 7.0006 199.537 7.54866C200.777 8.09673 201.812 8.89599 202.631 9.92362L199.582 12.6868C198.49 11.3623 197.159 10.7 195.589 10.7C194.667 10.7 193.848 10.9056 193.131 11.3052C192.415 11.7048 191.857 12.2757 191.459 13.0179C191.061 13.7601 190.867 14.5936 190.867 15.5527C190.867 16.5118 191.061 17.3568 191.459 18.0875C191.857 18.8183 192.415 19.3892 193.131 19.8002C193.848 20.1999 194.667 20.4054 195.589 20.4054C197.148 20.4054 198.479 19.7431 199.582 18.4186L202.631 21.1818C201.812 22.2209 200.777 23.0087 199.537 23.5568C198.297 24.1048 196.897 24.3789 195.361 24.3789C193.586 24.3789 191.994 24.0021 190.583 23.2485Z" fill="#DDF2FD"/>
<path d="M206.519 23.8645C205.233 23.5219 204.187 23.0766 203.379 22.5057L204.949 18.9661C205.711 19.4685 206.587 19.8681 207.589 20.1764C208.59 20.4847 209.568 20.6331 210.535 20.6331C212.367 20.6331 213.289 20.1764 213.289 19.2516C213.289 18.7606 213.027 18.4066 212.503 18.1668C211.98 17.9385 211.138 17.6873 209.978 17.4247C208.703 17.1506 207.645 16.8538 206.792 16.5341C205.939 16.2144 205.199 15.712 204.596 15.0155C203.993 14.319 203.675 13.3827 203.675 12.2066C203.675 11.1676 203.959 10.2427 204.517 9.4092C205.085 8.57568 205.927 7.91344 207.042 7.43388C208.157 6.9429 209.534 6.70312 211.161 6.70312C212.276 6.70312 213.368 6.82872 214.449 7.07992C215.53 7.33112 216.474 7.6965 217.305 8.18747L215.826 11.7499C214.21 10.8821 212.651 10.4368 211.138 10.4368C210.183 10.4368 209.5 10.5738 209.056 10.8593C208.624 11.1447 208.408 11.5101 208.408 11.9668C208.408 12.4236 208.669 12.7547 209.181 12.9831C209.693 13.2114 210.524 13.4398 211.673 13.691C212.959 13.965 214.028 14.2619 214.881 14.5702C215.723 14.8899 216.463 15.3923 217.077 16.0773C217.692 16.7624 218.01 17.6987 218.01 18.8748C218.01 19.891 217.726 20.8158 217.168 21.6379C216.599 22.46 215.757 23.1223 214.631 23.6133C213.505 24.1042 212.128 24.3554 210.524 24.3554C209.159 24.3554 207.827 24.1842 206.542 23.8416L206.519 23.8645Z" fill="#DDF2FD"/>
</g>
<defs>
<clipPath id="clip0_496_1751">
<rect width="218" height="31" fill="white"/>
</clipPath>
</defs>
</svg>
