<svg width="17" height="15" viewBox="0 0 17 15" fill="none" xmlns="http://www.w3.org/2000/svg">
<g id="Group 1061">
<path id="XMLID_254_" d="M16.9052 7.94909L15.3958 13.2438C15.1733 14.0212 14.4547 14.5643 13.6476 14.5643H5.4775C5.14216 14.5643 4.87109 14.2925 4.87109 13.9575V5.46162C4.87109 5.33115 4.91294 5.20371 4.99116 5.09934L8.26089 0.705763C8.62352 0.251235 9.14624 0 9.70656 0C10.7186 0 11.5415 0.823491 11.5415 1.83632V4.85478H14.5748C15.3419 4.85478 16.0465 5.20614 16.508 5.81906C16.9713 6.43318 17.1156 7.20934 16.9052 7.94909Z" fill="#BEC7E1"/>
<path id="XMLID_256_" d="M3.0653 4.87109H0.61306C0.274038 4.87109 0 5.1425 0 5.47691V13.9583C0 14.2927 0.274038 14.5641 0.61306 14.5641H3.0653C3.40432 14.5641 3.67836 14.2927 3.67836 13.9583V5.47691C3.67836 5.1425 3.40432 4.87109 3.0653 4.87109ZM1.83918 13.0495C1.33157 13.0495 0.919591 12.6424 0.919591 12.1408C0.919591 11.6392 1.33157 11.2321 1.83918 11.2321C2.3468 11.2321 2.75877 11.6392 2.75877 12.1408C2.75877 12.6424 2.3468 13.0495 1.83918 13.0495Z" fill="#BEC7E1"/>
</g>
</svg>
