<svg width="12" height="11" viewBox="0 0 12 11" fill="none" xmlns="http://www.w3.org/2000/svg">
<g id="Group 360">
<g id="Vr4eaF.tif">
<path id="Vector" d="M10.3136 11H0.969973C0.957388 10.9938 0.945466 10.9845 0.932218 10.9817C0.366307 10.8646 0.000881152 10.4296 0.000660352 9.86538C-2.04842e-06 6.95479 0.0004416 4.04399 0 1.1334C0 1.03266 0.00905184 0.933419 0.0348855 0.835904C0.169132 0.33111 0.618018 0.00046383 1.17399 0.000248566C4.15214 -0.000181963 7.1303 3.33015e-05 10.1084 0.000248566C10.1416 0.000248566 10.1747 -0.000181963 10.2076 0.00175542C10.5236 0.0204834 10.7843 0.149427 10.9974 0.3761C11.1504 0.539055 11.2255 0.737744 11.2833 0.945474V10.0548C11.2765 10.0705 11.2665 10.0858 11.2632 10.1022C11.2085 10.3641 11.0729 10.5773 10.8636 10.7497C10.7026 10.8821 10.5112 10.9462 10.3138 11H10.3136ZM6.20713 5.0172C6.20713 4.84391 6.20382 4.67062 6.20868 4.49755C6.21066 4.4235 6.18837 4.39982 6.11042 4.40025C5.61097 4.40348 5.11152 4.40348 4.61207 4.40025C4.53546 4.39982 4.51359 4.41962 4.51359 4.4954C4.5158 6.08146 4.51602 7.66753 4.51315 9.25338C4.51315 9.34142 4.54716 9.34982 4.62179 9.34939C5.1102 9.3468 5.59861 9.3453 6.08702 9.35025C6.18351 9.35132 6.20978 9.32743 6.20934 9.23207C6.20537 8.337 6.20691 7.44193 6.20735 6.54686C6.20735 6.4754 6.20956 6.4035 6.21663 6.33246C6.26388 5.85522 6.80793 5.50369 7.27602 5.64663C7.66772 5.76632 7.89603 6.07673 7.8967 6.498C7.89802 7.41093 7.89846 8.32387 7.89515 9.2368C7.89471 9.32635 7.91966 9.35089 8.01107 9.35003C8.49948 9.34573 8.98789 9.34551 9.4763 9.35003C9.56815 9.35089 9.59156 9.327 9.59112 9.23767C9.5878 8.24594 9.58869 7.25422 9.58913 6.2625C9.58935 5.58313 9.30385 5.04131 8.7417 4.64845C8.14598 4.23213 7.3915 4.1415 6.71166 4.57892C6.5242 4.69947 6.36302 4.84628 6.20713 5.01677V5.0172ZM3.38641 6.8859C3.38641 6.09481 3.38487 5.30371 3.38862 4.51262C3.38906 4.42264 3.36323 4.39917 3.27226 4.39982C2.78031 4.40391 2.28815 4.40369 1.79621 4.39982C1.71319 4.39917 1.69265 4.42156 1.69287 4.50121C1.6953 6.0834 1.6953 7.66559 1.69287 9.248C1.69287 9.327 1.71186 9.35068 1.79577 9.35003C2.28771 9.34594 2.77987 9.34594 3.27181 9.35003C3.3619 9.35089 3.38906 9.32829 3.38862 9.23788C3.38487 8.45389 3.38641 7.6699 3.38641 6.88612V6.8859ZM3.55135 2.47729C3.55312 1.9316 3.09716 1.48471 2.53876 1.48493C1.9819 1.48493 1.51977 1.93698 1.52352 2.47751C1.52727 3.02062 1.97528 3.45739 2.53324 3.4617C3.09429 3.466 3.54958 3.02579 3.55135 2.47729Z" fill="white"/>
</g>
</g>
</svg>
