<svg width="20" height="20" viewBox="0 0 20 20" fill="none" xmlns="http://www.w3.org/2000/svg">
<g id="&#208;&#161;&#208;&#190;&#209;&#134; &#209;&#129;&#208;&#181;&#209;&#130;&#208;&#184;">
<path id="Vector" d="M6.97266 2.86116C5.23828 2.94336 2.47266 3.17875 1.93359 3.29084C1.19922 3.44404 0.5 4.11285 0.316406 4.83772C0.179688 5.3795 0 8.05103 0 9.56428C0 11.0775 0.179688 13.7491 0.316406 14.2908C0.5 15.0157 1.19922 15.6808 1.93359 15.8377C2.21094 15.8938 3.75 16.0507 4.90234 16.1404C8.17578 16.3907 11.7773 16.3907 15.1094 16.1404C16.25 16.0544 17.7812 15.8975 18.0664 15.8377C18.8047 15.6808 19.5 15.0157 19.6836 14.2908C19.8203 13.7491 20 11.0775 20 9.56428C20 8.05103 19.8203 5.3795 19.6836 4.83772C19.5 4.11285 18.8008 3.44777 18.0664 3.29084C17.4961 3.17128 14.8125 2.94709 12.9102 2.85742C11.4453 2.79016 8.43359 2.79016 6.97266 2.86116ZM10.8555 7.97631C12.2109 8.83942 13.3164 9.55307 13.3164 9.56428C13.3164 9.58296 8.42188 12.7103 8.35547 12.7328C8.33594 12.7402 8.32031 11.4325 8.32031 9.56428C8.32031 7.69608 8.33594 6.38833 8.35547 6.3958C8.375 6.39954 9.5 7.1132 10.8555 7.97631Z" fill="white"/>
</g>
</svg>
