<svg width="40" height="40" viewBox="0 0 40 40" fill="none" xmlns="http://www.w3.org/2000/svg">
<g id="Layer_1" clip-path="url(#clip0_242_7655)">
<g id="Vector">
<path d="M3.90988 40.0003C2.884 38.9652 1.85812 37.93 0.841486 36.8949C0.536495 36.5807 -0.0180336 36.3034 0.000450713 35.943C0.018935 35.6195 0.527253 35.3145 0.832244 35.0188C3.62337 32.2184 6.42374 29.418 9.22411 26.6361C9.44592 26.4236 9.47365 26.2849 9.28881 26.0262C7.82855 24.0021 6.87661 21.7563 6.46071 19.2886C5.81376 15.4069 6.42374 11.7286 8.4108 8.30897C10.5273 4.68605 13.5587 2.1537 17.5513 0.869043C22.2371 -0.646669 26.7842 -0.193804 31.0356 2.33854C35.25 4.84316 37.9025 8.53078 38.8359 13.3552C39.7417 18.0409 38.7897 22.3848 35.9339 26.2387C33.226 29.9079 29.5846 32.1167 25.0744 32.7822C21.1834 33.3644 17.5236 32.5973 14.1502 30.5456C13.7897 30.3238 13.5864 30.3422 13.2814 30.6472C10.287 33.6694 7.27402 36.6731 4.26108 39.686C4.15942 39.7877 4.07624 39.8986 3.98382 40.0003H3.90988ZM22.6899 4.3256C16.0078 4.30712 10.5365 9.77847 10.518 16.4883C10.4995 23.1703 15.9801 28.6602 22.6714 28.6694C29.3535 28.6879 34.8249 23.2165 34.8433 16.5068C34.8618 9.81544 29.3905 4.34409 22.6899 4.3256Z" fill="#277EFF"/>
<path d="M24.8341 15.7581C24.8341 18.2535 24.8341 20.7489 24.8341 23.2443C24.8341 23.5955 24.7324 23.6787 24.3997 23.6694C23.226 23.6509 22.0615 23.6509 20.8877 23.6694C20.5919 23.6694 20.518 23.5862 20.5273 23.2997C20.5273 18.2905 20.5273 13.2905 20.5273 8.28124C20.5273 8.00398 20.5735 7.90231 20.8785 7.90231C22.0707 7.9208 23.2722 7.9208 24.4644 7.90231C24.7602 7.90231 24.8341 7.97625 24.8249 8.272C24.8156 10.7674 24.8249 13.2628 24.8249 15.7581H24.8341Z" fill="#277EFF"/>
<path d="M26.2574 17.2461C26.2574 15.2221 26.2574 13.1888 26.2574 11.1648C26.2574 10.8506 26.3498 10.7674 26.6548 10.7766C27.8378 10.7951 29.0208 10.7951 30.2038 10.7766C30.5088 10.7766 30.5642 10.8783 30.5642 11.1555C30.5642 15.2036 30.5642 19.2424 30.5642 23.2905C30.5642 23.5955 30.481 23.6879 30.1761 23.6879C28.9931 23.6694 27.8101 23.6694 26.6271 23.6879C26.3313 23.6879 26.2574 23.5955 26.2574 23.309C26.2666 21.2942 26.2574 19.2794 26.2574 17.2646V17.2461Z" fill="#277EFF"/>
<path d="M14.8064 18.6324C14.8064 17.089 14.8064 15.5363 14.8064 13.9929C14.8064 13.6971 14.8895 13.6232 15.1853 13.6232C16.3775 13.6417 17.579 13.6417 18.7712 13.6232C19.0485 13.6232 19.1224 13.7156 19.1132 13.9836C19.1132 17.089 19.1132 20.1944 19.1132 23.2997C19.1132 23.5955 19.03 23.6787 18.7343 23.6694C17.5513 23.6509 16.3683 23.6509 15.1853 23.6694C14.8618 23.6694 14.7971 23.5585 14.7971 23.272C14.8064 21.7286 14.7971 20.1759 14.7971 18.6324H14.8064Z" fill="#277EFF"/>
</g>
</g>
<defs>
<clipPath id="clip0_242_7655">
<rect width="39.159" height="40" fill="white"/>
</clipPath>
</defs>
</svg>
