<svg width="201" height="208" viewBox="0 0 201 208" fill="none" xmlns="http://www.w3.org/2000/svg">
<g id="Vector" filter="url(#filter0_d_62_2685)">
<path d="M145.832 116.236V83.9651C148.898 82.9802 151 80.1229 151 76.8694C151 72.7602 147.652 69.4148 143.534 69.4148C141.627 69.4148 139.838 70.1212 138.455 71.4077L107.806 54.9909C107.913 54.4855 107.967 53.9686 107.967 53.4546C107.967 49.3454 104.62 46 100.501 46C96.3831 46 93.0355 49.3425 93.0355 53.4546C93.0355 53.9571 93.0873 54.4568 93.1851 54.9478L62.5132 71.379C61.1327 70.1098 59.3583 69.4177 57.4659 69.4177C53.3505 69.4177 50 72.7602 50 76.8723C50 80.1143 52.0966 82.9687 55.1479 83.9594V116.242C52.0937 117.232 50 120.087 50 123.329C50 127.438 53.3476 130.783 57.4659 130.783C59.4129 130.783 61.288 130.017 62.6742 128.667L93.1908 145.018C93.0844 145.52 93.0326 146.034 93.0326 146.545C93.0326 150.655 96.3802 154 100.499 154C104.617 154 107.964 150.657 107.964 146.545C107.964 146.008 107.907 145.471 107.789 144.946L138.271 128.612C139.666 129.994 141.558 130.78 143.531 130.78C147.647 130.78 150.997 127.438 150.997 123.326C150.997 120.072 148.895 117.218 145.829 116.233L145.832 116.236ZM107.875 98.6389L138.403 82.2824C139.214 83.0491 140.181 83.6234 141.236 83.9651V116.236C140.209 116.566 139.269 117.12 138.47 117.855L107.855 101.453C107.95 100.976 107.999 100.488 107.999 100.003C107.999 99.5463 107.956 99.0897 107.872 98.6417L107.875 98.6389ZM136.209 78.3139L105.727 94.6474C104.89 93.8376 103.886 93.2403 102.779 92.8928V60.5532C103.792 60.2287 104.726 59.6888 105.517 58.9709L136.212 75.4164C136.117 75.896 136.068 76.3813 136.068 76.8694C136.068 77.3576 136.114 77.84 136.209 78.311V78.3139ZM136.169 124.538L105.471 140.986C104.692 140.291 103.774 139.766 102.782 139.45V107.11C103.858 106.771 104.838 106.194 105.661 105.419L136.229 121.798C136.123 122.304 136.068 122.818 136.068 123.332C136.068 123.734 136.103 124.138 136.169 124.54V124.538ZM64.7622 121.741L95.3449 105.355C96.1674 106.154 97.1567 106.745 98.2438 107.096V139.444C97.22 139.768 96.2767 140.311 95.4801 141.038L64.8254 124.612C64.9002 124.187 64.9376 123.759 64.9376 123.332C64.9376 122.797 64.8801 122.266 64.7651 121.741H64.7622ZM64.7823 75.3734L95.4513 58.9393C96.2537 59.6773 97.2056 60.2315 98.2438 60.5589V92.9043C97.128 93.2633 96.1156 93.8807 95.2787 94.7106L64.7794 78.3713C64.8801 77.8774 64.9319 77.3748 64.9319 76.8723C64.9319 76.3698 64.8801 75.8673 64.7794 75.3734H64.7823ZM93.1966 101.361L62.4873 117.815C61.6964 117.097 60.7618 116.555 59.7465 116.23V83.9709C60.7905 83.6378 61.7482 83.0749 62.5563 82.3226L93.1793 98.7308C93.1074 99.15 93.07 99.5779 93.07 100C93.07 100.457 93.1132 100.91 93.1966 101.361Z" fill="white"/>
</g>
<defs>
<filter id="filter0_d_62_2685" x="0" y="0" width="201" height="208" filterUnits="userSpaceOnUse" color-interpolation-filters="sRGB">
<feFlood flood-opacity="0" result="BackgroundImageFix"/>
<feColorMatrix in="SourceAlpha" type="matrix" values="0 0 0 0 0 0 0 0 0 0 0 0 0 0 0 0 0 0 127 0" result="hardAlpha"/>
<feOffset dy="4"/>
<feGaussianBlur stdDeviation="25"/>
<feComposite in2="hardAlpha" operator="out"/>
<feColorMatrix type="matrix" values="0 0 0 0 0.0676042 0 0 0 0 0.126919 0 0 0 0 0.275 0 0 0 0.25 0"/>
<feBlend mode="normal" in2="BackgroundImageFix" result="effect1_dropShadow_62_2685"/>
<feBlend mode="normal" in="SourceGraphic" in2="effect1_dropShadow_62_2685" result="shape"/>
</filter>
</defs>
</svg>
