<svg width="41" height="48" viewBox="0 0 41 48" fill="none" xmlns="http://www.w3.org/2000/svg">
<g id="Layer_1" clip-path="url(#clip0_1_1176)">
<path id="Vector" d="M40.3252 8.0848C40.3252 7.06696 39.9988 6.59767 39.0396 6.27306C32.9738 4.2185 26.9055 2.16898 20.8397 0.113156C20.3794 -0.0428544 19.945 -0.0353055 19.4821 0.121963C13.399 2.18407 7.31336 4.23612 1.22772 6.29194C0.373945 6.58005 0.00910517 7.09212 0.00786422 8.01183C0.00662326 12.2178 -0.011991 16.4251 0.012828 20.6311C0.0525385 27.2666 2.15099 33.1849 6.1692 38.4012C8.99857 42.075 12.4124 45.048 16.5634 47.1101C17.5376 47.5945 18.5651 47.9179 19.6087 48.1959H20.63C24.0017 47.2435 26.9018 45.4116 29.5624 43.1759C35.1008 38.5233 38.6859 32.6754 39.9244 25.4347C40.2098 23.7626 40.3302 22.0729 40.3277 20.3744C40.3215 16.2779 40.3264 12.1813 40.3252 8.0848ZM33.0011 30.6862C32.8422 31.4713 32.3459 31.9519 31.6733 32.3344C29.9335 33.3271 28.2197 34.3676 26.4861 35.3728C25.7924 35.7754 25.0764 35.7767 24.3752 35.3653C22.5734 34.3059 20.7752 33.2415 18.9709 32.1872C18.2499 31.7657 17.8826 31.1606 17.9136 30.3025C17.9359 29.7099 17.9272 29.1161 17.9136 28.5235C17.9074 28.2467 18.0004 28.0617 18.2412 27.9233C18.9361 27.5245 19.6261 27.1169 20.3136 26.7042C20.5978 26.5331 20.6908 26.6199 20.6859 26.9332C20.6772 27.5409 20.6759 28.1485 20.6859 28.7562C20.6983 29.5099 21.0147 30.0785 21.6799 30.4547C22.5523 30.9479 23.4135 31.4587 24.271 31.9783C25.0553 32.4527 25.811 32.4816 26.6015 31.9721C27.4429 31.4285 28.3128 30.9291 29.1727 30.4145C29.7734 30.0546 30.0985 29.5426 30.0911 28.8166C30.0799 27.6591 30.0811 26.5016 30.0911 25.3454C30.0973 24.6131 29.8094 24.0696 29.1752 23.7035C28.3078 23.2015 27.4379 22.7033 26.5928 22.1648C25.7812 21.6477 25.0131 21.6426 24.1841 22.1384C21.531 23.7261 18.8629 25.2875 16.1986 26.8577C15.4714 27.2867 14.7467 27.7208 14.0108 28.1347C13.3903 28.4832 12.745 28.4807 12.132 28.1234C10.2519 27.0288 8.38058 25.9178 6.5055 24.8144C6.07985 24.5641 5.81801 24.1728 5.59836 23.745V15.9319C5.81553 15.4186 6.19402 15.0789 6.67178 14.8008C8.41532 13.7855 10.1489 12.7525 11.8763 11.7083C12.7425 11.1849 13.5678 11.166 14.4464 11.7058C16.1415 12.7463 17.859 13.7528 19.5727 14.7631C20.2627 15.1707 20.6288 15.7432 20.6052 16.5685C20.5866 17.2039 20.5916 17.8418 20.6064 18.4771C20.6139 18.7678 20.5308 18.964 20.2677 19.1112C19.6062 19.4811 18.9609 19.8812 18.3032 20.2587C17.9049 20.4877 17.8416 20.4487 17.8379 19.9945C17.8317 19.4157 17.8304 18.837 17.8379 18.2595C17.8478 17.4832 17.5475 16.9057 16.8675 16.5094C16.0013 16.0061 15.15 15.4764 14.3061 14.9354C13.5156 14.4271 12.7475 14.3944 11.9396 14.8964C11.0883 15.4261 10.2197 15.9243 9.351 16.4238C8.66724 16.8176 8.33218 17.3926 8.34583 18.1991C8.36444 19.2974 8.35948 20.3971 8.34707 21.4967C8.33838 22.2327 8.6449 22.7787 9.25173 23.1562C10.1762 23.7312 11.1082 24.291 12.0315 24.8673C12.7314 25.3039 13.4213 25.329 14.1249 24.8836C17.4048 22.8089 20.8435 21.006 24.137 18.9552C25.0069 18.4142 25.806 18.374 26.6958 18.9213C28.3413 19.9353 30.0129 20.9054 31.6906 21.8628C32.3508 22.239 32.8187 22.7322 33.0011 23.4833V30.6887V30.6862Z" fill="#277EFF"/>
</g>
<defs>
<clipPath id="clip0_1_1176">
<rect width="40.1633" height="48" fill="white"/>
</clipPath>
</defs>
</svg>
