<svg width="54" height="54" viewBox="0 0 54 54" fill="none" xmlns="http://www.w3.org/2000/svg">
<g id="Isolation_Mode" clip-path="url(#clip0_78_243)">
<path id="Vector" d="M0 26.67C0 29.12 0.32 31.5 0.94 33.76C1.56 36.01 2.46 38.15 3.61 40.11C4.75 42.07 6.15 43.88 7.75 45.5C9.36 47.12 11.17 48.52 13.13 49.68C15.09 50.84 17.24 51.74 19.51 52.37C21.78 52.99 24.18 53.31 26.63 53.31C30.31 53.31 33.81 52.61 37.04 51.22C40.27 49.83 43.12 47.91 45.53 45.51C47.94 43.11 49.87 40.26 51.27 37.06C52.67 33.85 53.39 30.36 53.39 26.69C53.39 23.02 52.68 19.52 51.27 16.3C49.87 13.08 47.94 10.23 45.53 7.83C43.12 5.42 40.26 3.5 37.04 2.12C33.81 0.7 30.31 0 26.64 0C24.16 0 21.76 0.32 19.5 0.94C17.24 1.57 15.1 2.47 13.14 3.63C11.18 4.79 9.37 6.19 7.76 7.81C6.15 9.43 4.76 11.25 3.62 13.22C2.48 15.19 1.58 17.34 0.95 19.59C0.32 21.84 0 24.22 0 26.67ZM8.98 19.18C9.98 16.86 11.36 14.81 13.08 13.09C14.8 11.37 16.85 9.99 19.16 9C21.47 8.01 23.99 7.5 26.64 7.5C29.29 7.5 31.83 8 34.16 9C36.5 10 38.56 11.37 40.3 13.09C42.03 14.81 43.42 16.85 44.42 19.18C45.41 21.49 45.92 24.01 45.92 26.67C45.92 29.33 45.42 31.85 44.42 34.18C43.42 36.51 42.04 38.57 40.3 40.29C38.56 42.01 36.5 43.39 34.16 44.38C31.83 45.37 29.3 45.88 26.64 45.88C23.98 45.88 21.47 45.38 19.16 44.38C16.85 43.39 14.8 42.01 13.08 40.29C11.36 38.57 9.98 36.51 8.98 34.18C7.99 31.85 7.48 29.32 7.48 26.67C7.48 24.02 7.98 21.5 8.98 19.18Z" fill="#3862AE"/>
<path id="Vector_2" d="M2.97021 26.71C2.97021 28.38 3.19021 30.01 3.62021 31.56C4.05021 33.1 4.66021 34.56 5.44021 35.9C6.22021 37.24 7.18021 38.48 8.27022 39.58C9.37021 40.69 10.6102 41.65 11.9502 42.44C13.2902 43.23 14.7602 43.85 16.3202 44.28C17.8702 44.71 19.5102 44.92 21.1902 44.92C23.7002 44.92 26.1002 44.44 28.3102 43.49C30.5202 42.54 32.4702 41.23 34.1102 39.58C35.7602 37.94 37.0802 35.99 38.0402 33.8C39.0002 31.6 39.4902 29.22 39.4902 26.7C39.4902 24.18 39.0002 21.8 38.0402 19.59C37.0802 17.39 35.7602 15.44 34.1102 13.8C32.4602 12.16 30.5102 10.84 28.3102 9.88996C26.1002 8.93996 23.7002 8.45996 21.1902 8.45996C19.5002 8.45996 17.8602 8.67996 16.3102 9.09996C14.7602 9.52996 13.3002 10.15 11.9602 10.94C10.6202 11.73 9.38021 12.69 8.28021 13.8C7.18021 14.91 6.23021 16.15 5.45021 17.5C4.67021 18.85 4.06021 20.31 3.63021 21.85C3.20021 23.39 2.98021 25.02 2.98021 26.7L2.97021 26.71ZM9.48021 21.75C10.1402 20.21 11.0602 18.85 12.2002 17.71C13.3402 16.57 14.7002 15.66 16.2302 15C17.7602 14.34 19.4202 14.01 21.1902 14.01C22.9602 14.01 24.6302 14.34 26.1702 15C27.7202 15.66 29.0902 16.57 30.2402 17.71C31.3902 18.85 32.3102 20.2 32.9702 21.74C33.6302 23.27 33.9602 24.94 33.9602 26.7C33.9602 28.46 33.6302 30.13 32.9702 31.68C32.3102 33.22 31.3902 34.59 30.2402 35.73C29.0902 36.87 27.7202 37.78 26.1702 38.44C23.0702 39.76 19.2902 39.76 16.2302 38.44C14.7002 37.78 13.3402 36.87 12.2002 35.73C11.0602 34.59 10.1502 33.23 9.48021 31.68C8.82021 30.14 8.49021 28.46 8.49021 26.7C8.49021 24.94 8.82021 23.27 9.48021 21.74V21.75Z" fill="#7DC9E9"/>
<path id="Vector_3" d="M15.0298 26.66C15.0298 27.64 15.1598 28.6 15.4098 29.5C15.6598 30.41 16.0198 31.26 16.4798 32.05C16.9398 32.83 17.4998 33.56 18.1398 34.21C18.7898 34.86 19.5098 35.42 20.2998 35.89C21.0898 36.36 21.9598 36.72 22.8598 36.97C23.7798 37.22 24.7398 37.35 25.7198 37.35C27.1898 37.35 28.5998 37.07 29.8998 36.51C31.1898 35.96 32.3398 35.18 33.2998 34.22C34.2698 33.26 35.0398 32.12 35.5998 30.83C36.1598 29.54 36.4498 28.14 36.4498 26.66C36.4498 25.18 36.1598 23.78 35.5998 22.49C35.0398 21.2 34.2598 20.06 33.2998 19.09C32.3398 18.12 31.1898 17.35 29.8998 16.8C28.5998 16.24 27.1998 15.96 25.7198 15.96C24.7298 15.96 23.7598 16.09 22.8498 16.34C21.9498 16.59 21.0898 16.95 20.2998 17.42C19.5098 17.89 18.7798 18.45 18.1398 19.1C17.4998 19.75 16.9398 20.48 16.4798 21.27C16.0198 22.06 15.6598 22.92 15.4098 23.82C15.1598 24.73 15.0298 25.68 15.0298 26.67V26.66ZM19.3398 23.96C19.6998 23.12 20.1998 22.38 20.8198 21.76C21.4398 21.14 22.1798 20.64 23.0198 20.28C23.8498 19.92 24.7598 19.74 25.7198 19.74C26.6798 19.74 27.5998 19.92 28.4398 20.28C29.2898 20.64 30.0398 21.14 30.6598 21.76C31.2898 22.38 31.7798 23.12 32.1498 23.96C32.5098 24.79 32.6898 25.7 32.6898 26.66C32.6898 27.62 32.5098 28.53 32.1498 29.37C31.7898 30.22 31.2898 30.96 30.6598 31.58C30.0298 32.2 29.2898 32.7 28.4398 33.06C26.7598 33.78 24.6798 33.78 23.0198 33.06C22.1798 32.7 21.4398 32.2 20.8198 31.58C20.1998 30.96 19.6998 30.22 19.3398 29.37C18.9798 28.53 18.7998 27.62 18.7998 26.66C18.7998 25.7 18.9798 24.79 19.3398 23.96Z" fill="url(#paint0_linear_78_243)"/>
<path id="Vector_4" d="M21.8899 21.1299C24.9399 21.1299 27.4199 23.6099 27.4199 26.6499C27.4199 29.6899 24.9399 32.1699 21.8899 32.1699C18.8399 32.1699 16.3599 29.6899 16.3599 26.6499C16.3599 23.6099 18.8399 21.1299 21.8899 21.1299Z" fill="#3862AE"/>
</g>
<defs>
<linearGradient id="paint0_linear_78_243" x1="36.4498" y1="26.65" x2="15.0298" y2="26.65" gradientUnits="userSpaceOnUse">
<stop stop-color="#44B2E5"/>
<stop offset="1" stop-color="#00B6C0"/>
</linearGradient>
<clipPath id="clip0_78_243">
<rect width="53.39" height="53.3" fill="white"/>
</clipPath>
</defs>
</svg>
