<svg width="41" height="41" viewBox="0 0 41 41" fill="none" xmlns="http://www.w3.org/2000/svg">
  <g clip-path="url(#clip0_47_465)">
    <path d="M0 20.5115C0 22.393 0.245739 24.2283 0.721858 25.9639C1.19798 27.6994 1.88912 29.3351 2.77224 30.8479C3.64769 32.3531 4.72279 33.7507 5.95149 34.9948C7.18786 36.2388 8.57782 37.3216 10.083 38.2124C11.5881 39.1032 13.2392 39.7943 14.9824 40.2781C16.7256 40.7619 18.5686 41 20.4501 41C23.2761 41 25.9639 40.4548 28.4443 39.395C30.9247 38.3276 33.1133 36.8532 34.964 35.0024C36.8148 33.1517 38.2969 30.9631 39.372 28.498C40.4471 26.0253 41 23.3452 41 20.5192C41 17.6932 40.4548 15.0054 39.372 12.525C38.2969 10.0446 36.8148 7.85597 34.964 6.00524C33.1133 4.15452 30.917 2.67241 28.4443 1.61266C25.9639 0.545233 23.2761 0 20.4578 0C18.5533 0 16.7102 0.245739 14.9747 0.721858C13.2392 1.20566 11.5958 1.8968 10.0907 2.7876C8.5855 3.6784 7.19554 4.76119 5.95917 6.00524C4.7228 7.2493 3.65537 8.64694 2.77992 10.1674C1.90448 11.688 1.21334 13.3313 0.729537 15.0669C0.245739 16.7947 0 18.6301 0 20.5115ZM6.89605 14.752C7.66398 12.9627 8.72373 11.3885 10.0446 10.0676C11.3654 8.74677 12.9397 7.68702 14.7136 6.91909C16.4875 6.15883 18.4227 5.76719 20.4578 5.76719C22.4928 5.76719 24.4433 6.15115 26.2326 6.91909C28.0296 7.68702 29.6115 8.74677 30.9477 10.0676C32.2763 11.3885 33.3437 12.9627 34.1116 14.752C34.8719 16.5336 35.2635 18.4688 35.2635 20.5115C35.2635 22.5542 34.8796 24.4971 34.1116 26.2864C33.3437 28.0833 32.2839 29.6653 30.9477 30.9861C29.6115 32.307 28.0296 33.3667 26.2326 34.1347C24.4433 34.9026 22.5005 35.2866 20.4578 35.2866C18.4151 35.2866 16.4875 34.9026 14.7136 34.1347C12.9397 33.3744 11.3654 32.3147 10.0446 30.9861C8.72373 29.6653 7.66398 28.0833 6.89605 26.2864C6.13579 24.4971 5.74415 22.5542 5.74415 20.5115C5.74415 18.4688 6.12811 16.5336 6.89605 14.752Z" fill="#DDF2FD"/>
    <path d="M2.28076 20.5423C2.28076 21.8247 2.44971 23.0841 2.77992 24.2667C3.11013 25.4494 3.57857 26.5782 4.17756 27.6072C4.77655 28.6363 5.51376 29.5885 6.35081 30.4409C7.19554 31.2933 8.14778 32.0305 9.17681 32.6372C10.2058 33.2439 11.3347 33.72 12.5327 34.0502C13.723 34.3804 14.9824 34.5494 16.2725 34.5494C18.2 34.5494 20.0431 34.1808 21.7402 33.4512C23.4373 32.7217 24.9348 31.708 26.1942 30.4486C27.4613 29.1815 28.475 27.6917 29.2122 26.0023C29.9494 24.3128 30.3257 22.4774 30.3257 20.5423C30.3257 18.6071 29.9494 16.7717 29.2122 15.0746C28.475 13.3851 27.4613 11.8876 26.1942 10.6205C24.9271 9.35345 23.4297 8.34746 21.7402 7.61792C20.0431 6.88838 18.2 6.51978 16.2725 6.51978C14.9747 6.51978 13.7153 6.68872 12.525 7.01893C11.3347 7.34914 10.2135 7.82526 9.18449 8.43193C8.15546 9.0386 7.20322 9.77582 6.35849 10.6282C5.51376 11.4806 4.78423 12.4405 4.18524 13.4696C3.58625 14.5063 3.11781 15.6275 2.7876 16.8178C2.45739 18.0081 2.28844 19.2598 2.28844 20.5423H2.28076ZM7.28001 16.7256C7.78685 15.543 8.49335 14.4986 9.36879 13.6232C10.2442 12.7477 11.2886 12.0412 12.4636 11.5344C13.6385 11.0275 14.9133 10.7741 16.2725 10.7741C17.6241 10.7741 18.9142 11.0275 20.0968 11.5344C21.2871 12.0412 22.3392 12.74 23.2223 13.6232C24.1054 14.4986 24.8119 15.543 25.3188 16.7256C25.8256 17.9082 26.079 19.1907 26.079 20.5423C26.079 21.8938 25.8256 23.1839 25.3188 24.3666C24.8119 25.5569 24.1054 26.6013 23.2223 27.4767C22.3392 28.3521 21.2871 29.0586 20.0968 29.5655C17.7162 30.5792 14.8134 30.5792 12.4636 29.5655C11.2886 29.0586 10.2442 28.3521 9.36879 27.4767C8.49335 26.6013 7.79453 25.5492 7.28001 24.3589C6.77318 23.1686 6.51976 21.8861 6.51976 20.5346C6.51976 19.183 6.77318 17.9006 7.28001 16.7179V16.7256Z" fill="#DDF2FD"/>
    <path d="M11.542 20.5038C11.542 21.2563 11.6418 21.9936 11.8338 22.6924C12.0258 23.3912 12.3022 24.0516 12.6555 24.6506C13.0087 25.2573 13.4388 25.8102 13.9303 26.3093C14.4294 26.8085 14.9823 27.2462 15.589 27.5995C16.1957 27.9604 16.8638 28.2369 17.5549 28.4288C18.2614 28.6208 18.9986 28.7207 19.7512 28.7207C20.8801 28.7207 21.9629 28.5056 22.9612 28.0756C23.9518 27.6455 24.8349 27.0542 25.5721 26.317C26.317 25.5721 26.9084 24.6967 27.3384 23.7137C27.7684 22.7231 27.9911 21.6403 27.9911 20.5114C27.9911 19.3749 27.7684 18.2998 27.3384 17.3015C26.9084 16.3108 26.3094 15.4277 25.5721 14.6905C24.8349 13.9533 23.9518 13.3543 22.9612 12.9319C21.9629 12.5019 20.8877 12.2869 19.7512 12.2869C18.991 12.2869 18.2461 12.3867 17.5472 12.5787C16.8561 12.7707 16.1957 13.0471 15.589 13.408C14.9823 13.769 14.4217 14.199 13.9303 14.6982C13.4388 15.1973 13.0087 15.7579 12.6555 16.3646C12.3022 16.9713 12.0258 17.6317 11.8338 18.3305C11.6418 19.0293 11.542 19.7665 11.542 20.5191V20.5038ZM14.8518 18.4227C15.1282 17.7776 15.5122 17.2016 15.9883 16.7255C16.4644 16.2494 17.0327 15.8654 17.6778 15.589C18.3152 15.3125 19.014 15.1743 19.7512 15.1743C20.4884 15.1743 21.1949 15.3125 21.84 15.589C22.4927 15.8654 23.0687 16.2494 23.5448 16.7255C24.0286 17.2016 24.4049 17.7699 24.689 18.415C24.9655 19.06 25.1037 19.7589 25.1037 20.4961C25.1037 21.2333 24.9655 21.9398 24.689 22.5849C24.4126 23.2376 24.0286 23.8059 23.5448 24.282C23.061 24.7581 22.4927 25.1421 21.84 25.4185C20.5499 25.9714 18.9526 25.9714 17.6778 25.4185C17.0327 25.1421 16.4644 24.7581 15.9883 24.282C15.5122 23.8059 15.1282 23.2299 14.8518 22.5849C14.5753 21.9398 14.4371 21.241 14.4371 20.4961C14.4371 19.7512 14.5753 19.06 14.8518 18.415V18.4227Z" fill="#DDF2FD"/>
    <path d="M16.8102 16.2495C19.1523 16.2495 21.0568 18.154 21.0568 20.4962C21.0568 22.8384 19.1523 24.7429 16.8102 24.7429C14.468 24.7429 12.5635 22.8384 12.5635 20.4962C12.5635 18.154 14.468 16.2495 16.8102 16.2495Z" fill="#DDF2FD"/>
  </g>
  <defs>
    <clipPath id="clip0_47_465">
      <rect width="41" height="41" fill="white"/>
    </clipPath>
  </defs>
  <style>
    path { fill: #3862AE; }
    @media (prefers-color-scheme: dark) {
        path { fill: #DDF2FD; }
    }
  </style>
</svg>
