<svg width="64" height="73" viewBox="0 0 64 73" fill="none" xmlns="http://www.w3.org/2000/svg">
<g id="Layer_1" clip-path="url(#clip0_61_2670)">
<g id="3xoucS.tif">
<g id="Group">
<path id="Vector" d="M32.0273 0.0271919C33.8587 0.0271919 35.7038 0.0135189 37.5351 0.0271919C39.3664 0.0408649 40.6883 1.88672 40.2752 3.6642C39.9585 5.04517 38.7881 5.98861 37.2735 6.01595C36.8879 6.01595 36.3922 5.83821 36.1444 6.09799C35.8828 6.37145 36.0618 6.86368 36.0618 7.27387C36.048 7.95752 36.0618 8.64116 36.0618 9.32481C36.0618 9.59827 36.1306 9.70766 36.4198 9.74868C38.0032 9.9401 39.5592 10.2819 41.0876 10.7331C42.2855 11.075 43.4559 11.4988 44.585 11.991C45.0945 12.2235 45.6177 12.4149 46.1134 12.6747C48.0824 13.6865 49.9963 14.8077 51.7313 16.1886C52.2132 16.5715 52.6951 16.9543 53.1633 17.3645C53.3561 17.5423 53.5075 17.5149 53.6728 17.3645C54.2924 16.7356 54.912 16.0929 55.5454 15.4777C55.7244 15.2999 55.6693 15.2452 55.5316 15.0948C55.1736 14.6983 54.7192 14.3838 54.554 13.8369C54.3199 13.0439 54.5815 12.2508 55.2287 11.7859C55.8483 11.3484 56.9086 11.4031 57.4318 11.909C59.0015 13.4677 60.585 15.0128 62.1409 16.5852C62.7881 17.2415 62.7192 18.4447 62.0445 19.06C61.3285 19.7299 60.1719 19.7163 59.4697 18.9916C59.2218 18.7318 59.0841 18.7592 58.8638 18.9916C58.258 19.6069 57.6383 20.2222 57.0187 20.8238C56.826 21.0015 56.7846 21.1519 56.9774 21.3707C58.2029 22.8474 59.2907 24.4198 60.1444 26.1289C60.5437 26.9219 60.9981 27.6739 61.3148 28.508C61.6177 29.3284 62.0032 30.1077 62.2924 30.9418C62.8019 32.4048 63.2012 33.9088 63.4766 35.4265C63.9309 37.9423 64.0962 40.4855 63.9447 43.0424C63.8346 44.9566 63.5454 46.8435 63.1048 48.703C62.3612 51.8341 61.1495 54.7875 59.4697 57.5357C58.9189 58.4381 58.3406 59.3132 57.7072 60.1473C55.5592 62.9502 53.1082 65.4387 50.134 67.4076C49.3905 67.8998 48.6745 68.4878 47.8483 68.8022C46.8982 69.1714 46.1409 69.8961 45.122 70.1012C44.8328 70.1559 44.7089 70.484 44.3922 70.5387C43.6762 70.6618 43.0704 71.0583 42.3681 71.2497C41.8449 71.4001 41.3079 71.5368 40.7984 71.7146C39.8896 72.0291 38.9671 72.1658 38.0445 72.3846C37.1771 72.5897 36.3096 72.658 35.4421 72.8221C34.2855 73.0409 33.1289 72.9588 31.9722 72.9862C29.9482 73.0272 27.9378 72.8221 25.955 72.4393C23.5179 71.9744 21.1633 71.236 18.9051 70.2379C18.0377 69.8551 17.1977 69.4312 16.344 69.0073C16.2201 68.939 16.0549 68.8843 16.0273 68.7476C15.986 68.4604 15.7382 68.4604 15.5454 68.4057C15.0772 68.269 14.6504 68.1049 14.375 67.6674C14.2786 67.517 14.0445 67.6127 13.8655 67.4896C10.3957 65.0148 7.43525 62.0751 5.10822 58.4928C3.91029 56.647 2.90512 54.7054 2.1065 52.6545C1.39049 50.8223 0.867259 48.9217 0.523025 46.9802C0.0824051 44.5464 -0.0690579 42.1263 0.0273276 39.6788C0.0961744 37.956 0.330254 36.2742 0.674488 34.5925C1.01872 32.897 1.52819 31.2426 2.18912 29.6292C2.91889 27.8107 3.8139 26.0742 4.8466 24.4061C6.31993 22.0407 8.09617 19.9214 10.134 18.0208C11.9654 16.298 13.9895 14.8213 16.1788 13.5908C18.1203 12.4969 20.1581 11.6082 22.3062 10.9382C23.6831 10.5144 25.0738 10.2136 26.4783 9.89908C26.8638 9.81704 27.2494 9.78969 27.6349 9.74868C27.8827 9.72133 27.9516 9.61195 27.9516 9.37951C27.9516 8.36771 27.9516 7.35591 27.9516 6.34411C27.9516 6.09799 27.869 6.01595 27.6211 6.01595C27.1254 6.01595 26.6297 6.01595 26.1203 5.94759C24.3853 5.66046 23.3664 3.97868 23.7244 2.32425C23.986 1.10736 25.1977 -0.041173 26.7537 -0.000154052C28.5161 0.0545378 30.2649 -0.000154052 32.0273 -0.000154052V0.0271919ZM6.48516 39.5968C6.74678 39.5968 7.02216 39.5968 7.28378 39.5968C7.87586 39.5968 8.2201 39.8702 8.31648 40.4445C8.3991 40.9094 8.38533 41.3743 8.31648 41.8391C8.23387 42.4681 7.97225 42.6869 7.31132 42.7005C6.84316 42.7005 6.375 42.7005 5.89308 42.7005C5.20461 42.7005 5.14953 42.7005 5.25969 43.3979C5.46623 44.7788 5.50753 46.1872 5.92062 47.5681C6.375 49.0995 6.82939 50.6172 7.47655 52.0665C8.53679 54.4456 9.95504 56.606 11.6349 58.6022C11.8277 58.821 11.9791 58.862 12.1994 58.6296C12.585 58.2057 12.9981 57.8092 13.3974 57.4127C13.8655 56.9615 14.3337 56.9341 14.8019 57.3716C15.1185 57.6588 15.4215 57.9459 15.6969 58.2604C16.0686 58.6706 16.0411 59.1355 15.6693 59.5456C15.3389 59.8875 15.0222 60.2293 14.6917 60.5711C14.1547 61.118 14.1409 61.118 14.733 61.6239C16.5093 63.128 18.4783 64.3722 20.5988 65.3567C22.2786 66.136 24.0136 66.724 25.8311 67.1615C27.1943 67.476 28.5712 67.6264 29.9482 67.8178C30.3475 67.8725 30.4439 67.7221 30.4301 67.3666C30.4025 66.806 30.4163 66.2454 30.4301 65.6848C30.4439 65.0832 30.7605 64.7277 31.3389 64.6867C31.7795 64.6593 32.2201 64.6593 32.6607 64.6867C33.2666 64.7414 33.542 65.0695 33.5557 65.6848C33.5557 66.2454 33.5833 66.806 33.5557 67.3666C33.542 67.7631 33.6797 67.8725 34.0514 67.8041C34.9877 67.64 35.9378 67.599 36.8879 67.4213C38.4714 67.1341 40.0136 66.6966 41.5144 66.1497C42.8638 65.6575 44.1581 65.0285 45.4111 64.3038C46.8982 63.4424 48.3027 62.458 49.597 61.3231C49.7898 61.1591 49.8449 61.0907 49.597 60.8719C49.1289 60.4617 48.7158 59.9832 48.2752 59.532C47.8621 59.1081 47.9585 58.5885 48.2339 58.2877C48.5368 57.9596 48.8535 57.6178 49.1977 57.3306C49.6383 56.9478 50.1203 56.9888 50.5471 57.399C50.9464 57.7818 51.3595 58.1647 51.7313 58.5749C51.9791 58.862 52.1168 58.862 52.3647 58.5612C53.8931 56.7837 55.1599 54.8285 56.1926 52.7365C56.6607 51.7657 57.0738 50.7676 57.418 49.7421C57.8173 48.5389 58.134 47.3083 58.3681 46.0641C58.5471 45.0796 58.6435 44.0952 58.7399 43.1107C58.7674 42.8236 58.6573 42.7279 58.3681 42.7279C57.776 42.7279 57.1702 42.7416 56.5781 42.7279C55.986 42.7005 55.7106 42.4134 55.6831 41.8255C55.6693 41.4016 55.6556 40.9777 55.6831 40.5676C55.7106 39.9796 56.0962 39.6378 56.6883 39.6378C57.2666 39.6378 57.8449 39.6378 58.437 39.6378C58.6848 39.6378 58.7812 39.5694 58.7537 39.3096C58.671 38.585 58.6435 37.8466 58.5058 37.1356C58.313 36.0281 58.0377 34.9206 57.7623 33.8268C57.4043 32.4321 56.8535 31.1195 56.2614 29.8206C55.8759 28.9865 55.3802 28.1935 54.8982 27.4005C54.1272 26.1016 53.2046 24.8983 52.2132 23.7498C52.0755 23.5857 51.9516 23.5721 51.7864 23.7498C51.4146 24.1463 51.0153 24.5292 50.6297 24.9257C50.1065 25.4452 49.6108 25.4589 49.0876 24.953C48.826 24.7069 48.5781 24.4471 48.344 24.1873C47.9172 23.7361 47.9172 23.2439 48.344 22.7927C48.7433 22.3825 49.1427 21.9723 49.5557 21.5758C49.7347 21.398 49.7623 21.3023 49.542 21.1109C48.8948 20.564 48.2201 20.0444 47.5316 19.5385C45.4525 18.0482 43.1943 16.9133 40.7709 16.0656C38.5815 15.2999 36.3096 14.8897 33.9963 14.6709C33.6521 14.6436 33.542 14.7393 33.5557 15.0675C33.5695 15.6281 33.5695 16.1886 33.5557 16.7492C33.542 17.3508 33.1426 17.7063 32.5368 17.72C32.2063 17.72 31.8759 17.72 31.5454 17.72C30.8156 17.72 30.4439 17.3782 30.4301 16.6535C30.4301 16.1066 30.4301 15.5597 30.4301 15.0128C30.4301 14.7803 30.3888 14.6299 30.0858 14.6573C28.764 14.8077 27.4421 14.9444 26.1478 15.2452C24.6194 15.587 23.1048 16.0519 21.659 16.6672C19.029 17.7747 16.6194 19.2377 14.4576 21.1109C14.2511 21.2887 14.2373 21.3844 14.4301 21.5758C14.8569 21.986 15.27 22.3962 15.6693 22.82C16.0273 23.1755 16.0686 23.7225 15.7519 24.078C15.4352 24.4334 15.091 24.7616 14.7192 25.0761C14.3337 25.4042 13.9619 25.4179 13.5764 25.0898C13.1082 24.6932 12.6538 24.283 12.2545 23.8318C12.0067 23.5447 11.8965 23.5994 11.69 23.8318C9.77604 26.0195 8.27518 28.4533 7.15986 31.1195C6.14092 33.5807 5.5213 36.1512 5.25969 38.8037C5.20461 39.3507 5.45705 39.6241 6.017 39.6241C6.15469 39.6241 6.30616 39.6241 6.44385 39.6241L6.48516 39.5968Z" fill="#277EFF"/>
<path id="Vector_2" d="M48.6197 43.4116C48.6197 42.3315 48.6472 41.2376 48.6197 40.1575C48.6059 39.7062 48.7298 39.5695 49.198 39.5969C49.8176 39.6379 50.451 39.6379 51.0844 39.5969C51.525 39.5695 51.6627 39.6926 51.6627 40.1575C51.6351 42.5776 51.6627 44.984 51.6627 47.4041C51.6627 47.7323 51.6627 48.0604 51.6627 48.3886C51.6627 48.6073 51.5801 48.6894 51.3598 48.6894C50.6437 48.6894 49.914 48.6894 49.198 48.6894C48.9639 48.6894 48.8675 48.5663 48.7436 48.4159C47.821 47.2537 46.8847 46.1052 45.9622 44.943C45.8796 44.8336 45.8245 44.7106 45.6179 44.6285C45.6179 45.6266 45.6179 46.5837 45.6179 47.5409C45.6179 48.2974 45.237 48.6757 44.4751 48.6757C43.9794 48.6757 43.4699 48.6757 42.9742 48.6757C42.7126 48.6757 42.6162 48.621 42.6162 48.3339C42.6162 45.5309 42.6162 42.728 42.6162 39.925C42.6162 39.6926 42.6851 39.5969 42.9329 39.5969C43.704 39.5969 44.4751 39.6105 45.2324 39.5969C45.4665 39.5969 45.5629 39.7199 45.6868 39.8703C46.5405 40.9368 47.4079 42.017 48.2616 43.0835C48.358 43.2065 48.4544 43.3159 48.5508 43.439C48.5921 43.439 48.6197 43.4253 48.661 43.4116H48.6197Z" fill="#277EFF"/>
<path id="Vector_3" d="M26.3404 39.4055C29.1218 39.4055 31.2423 41.4428 31.2423 44.109C31.2423 46.7616 29.0943 48.8262 26.3404 48.8399C23.4626 48.8399 21.3146 46.7342 21.3834 43.986C21.4523 41.4018 23.6141 39.4055 26.3404 39.4055ZM28.1855 44.2184C28.213 43.0699 27.442 42.1401 26.3955 42.0991C25.3353 42.0581 24.4816 42.8921 24.454 43.9996C24.4265 45.2165 25.17 46.1189 26.244 46.1463C27.3593 46.1736 28.158 45.3806 28.1855 44.2047V44.2184Z" fill="#277EFF"/>
<path id="Vector_4" d="M36.8327 48.8399C34.0512 48.8399 31.917 46.7889 31.917 44.1364C31.917 41.4838 34.0926 39.4055 36.874 39.4055C39.6554 39.4055 41.7759 41.4428 41.7759 44.109C41.7759 46.7752 39.6141 48.8399 36.8327 48.8399ZM34.9876 44.109C34.9876 45.2849 35.7586 46.1463 36.8327 46.16C37.9204 46.16 38.7191 45.3396 38.7328 44.1637C38.7328 42.9878 37.9204 42.0991 36.8327 42.0991C35.7724 42.0991 34.9876 42.9605 34.9876 44.109Z" fill="#277EFF"/>
<path id="Vector_5" d="M16.8262 48.8534C15.3116 48.826 13.8796 48.5116 12.6265 47.5955C12.3374 47.3904 12.2823 47.2263 12.5439 46.9528C12.9295 46.5427 13.2875 46.1051 13.6179 45.6539C13.8107 45.3805 13.9622 45.4078 14.2238 45.5856C15.0224 46.1461 15.9587 46.3649 16.9226 46.4196C17.0603 46.4196 17.2117 46.4196 17.3494 46.3923C17.5422 46.3512 17.7763 46.3239 17.8038 46.0641C17.8314 45.8043 17.6386 45.7086 17.4321 45.6539C16.9501 45.5172 16.4682 45.4078 15.9725 45.2984C15.4355 45.1754 14.9123 45.0386 14.4028 44.8062C13.494 44.396 12.8193 43.7944 12.7642 42.7142C12.7092 41.552 13.1635 40.6633 14.1825 40.0617C15.105 39.5148 16.1377 39.4601 17.1842 39.5148C18.3546 39.5694 19.4286 39.8839 20.4062 40.5539C20.6265 40.7043 20.6541 40.8137 20.4889 41.0325C20.1171 41.5247 19.7453 42.0306 19.4011 42.5502C19.2496 42.7689 19.1395 42.7963 18.9191 42.6459C18.2995 42.222 17.5835 42.0306 16.8537 41.9485C16.6472 41.9212 16.4407 41.9212 16.2479 41.9485C16.0551 41.9759 15.8761 42.0443 15.8623 42.2904C15.8623 42.4955 16 42.6048 16.1653 42.6595C16.5646 42.7826 16.9777 42.8783 17.3907 42.9603C18.0792 43.1107 18.7539 43.2885 19.4011 43.5756C21.5491 44.5464 21.136 47.1716 19.7315 48.0877C18.8503 48.662 17.8589 48.8534 16.8262 48.8397V48.8534Z" fill="#277EFF"/>
<path id="Vector_6" d="M30.3612 33.7996C30.788 33.1023 31.2011 32.4733 31.5867 31.8033C31.7381 31.5435 31.9034 31.4205 32.22 31.4478C32.7708 31.4752 33.3216 31.4615 33.8724 31.4478C34.1202 31.4478 34.2028 31.5299 34.2028 31.7623C34.2028 33.7859 34.2028 35.8095 34.2028 37.8331C34.2028 38.1066 34.1065 38.1749 33.8448 38.1749C33.3216 38.1613 32.8121 38.1613 32.2889 38.1749C31.9997 38.1749 31.9171 38.0792 31.9171 37.8058C31.9309 36.8897 31.9171 35.9736 31.8207 35.0165C31.3388 35.7411 30.8569 36.4795 30.3474 37.2588C29.8379 36.4932 29.356 35.7548 28.8741 35.0302C28.8466 35.0302 28.8052 35.0438 28.7777 35.0575C28.7777 35.9189 28.7502 36.7803 28.7777 37.6417C28.7915 38.0519 28.6951 38.2296 28.2407 38.1886C27.7863 38.1476 27.3319 38.1613 26.8775 38.1886C26.6159 38.1886 26.5195 38.1202 26.5195 37.8468C26.5195 35.8232 26.5195 33.7996 26.5195 31.776C26.5195 31.5299 26.5884 31.4478 26.8362 31.4615C27.4283 31.4752 28.0342 31.4752 28.6262 31.4615C28.8466 31.4615 28.9567 31.5572 29.0669 31.735C29.4799 32.4186 29.893 33.0886 30.3474 33.8133L30.3612 33.7996Z" fill="#277EFF"/>
<path id="Vector_7" d="M40.2889 35.1122C40.2889 36.1104 40.2889 36.9718 40.2889 37.8195C40.2889 38.1203 40.1926 38.1886 39.9172 38.1886C39.4215 38.1613 38.912 38.175 38.4163 38.1886C38.1409 38.1886 38.0308 38.134 38.0308 37.8332C38.0308 35.8232 38.0308 33.8133 38.0308 31.8034C38.0308 31.5436 38.0996 31.4205 38.375 31.4615C38.3888 31.4615 38.4025 31.4615 38.4163 31.4615C38.9946 31.4615 39.6555 31.3111 40.1375 31.5299C40.6056 31.735 40.881 32.3366 41.239 32.7741C41.6521 33.28 42.0652 33.7859 42.5609 34.2508C42.5609 33.4578 42.5747 32.6784 42.5609 31.8854C42.5609 31.5299 42.6573 31.4205 43.0153 31.4479C43.4972 31.4752 43.9929 31.4615 44.4748 31.4479C44.7227 31.4479 44.8328 31.5026 44.8328 31.776C44.8328 33.7996 44.8328 35.8232 44.8328 37.8605C44.8328 38.0929 44.764 38.2023 44.5161 38.1886C44.0342 38.175 43.5385 38.175 43.0566 38.1886C42.8363 38.1886 42.7261 38.0793 42.6022 37.9289C41.9688 37.1358 41.3216 36.3565 40.6882 35.5634C40.5919 35.4404 40.4955 35.331 40.3027 35.1122H40.2889Z" fill="#277EFF"/>
<path id="Vector_8" d="M22.2789 31.27C24.3993 31.27 25.969 32.774 25.969 34.7976C25.969 36.8349 24.358 38.3663 22.2513 38.3663C20.1584 38.3663 18.5474 36.8076 18.5611 34.8113C18.5749 32.8151 20.1997 31.27 22.2789 31.27ZM20.8744 34.7703C20.8744 35.6454 21.4527 36.3153 22.2651 36.329C23.0637 36.329 23.6833 35.7001 23.6971 34.8523C23.7109 34.0046 23.0912 33.3073 22.2926 33.3073C21.4802 33.3073 20.8881 33.9226 20.8744 34.7703Z" fill="#277EFF"/>
<path id="Vector_9" d="M52.2272 35.8641C52.2272 36.1923 52.1996 36.5204 52.2272 36.8486C52.2823 37.2725 52.1033 37.5049 51.7453 37.6963C50.4785 38.4073 49.1428 38.5851 47.7659 38.1202C46.086 37.5596 45.191 36.0145 45.4526 34.2097C45.673 32.6236 47.0912 31.3657 48.7573 31.2564C49.8451 31.188 50.8365 31.4068 51.7315 32.0631C51.9656 32.2408 51.9793 32.3639 51.7866 32.569C51.4836 32.9108 51.1945 33.2663 50.9329 33.6218C50.7952 33.8132 50.685 33.8405 50.4922 33.6901C50.148 33.4304 49.7625 33.2799 49.3218 33.2663C48.6609 33.2526 48.1514 33.5261 47.8898 34.1277C47.5869 34.8113 47.642 35.4813 48.1377 36.0556C48.5783 36.5615 49.1704 36.6572 49.8175 36.5204C50.2582 36.4247 50.0929 36.0966 50.1067 35.8505C50.1205 35.5633 49.8864 35.659 49.7349 35.6454C48.9638 35.618 48.9914 35.618 48.9501 34.8387C48.9225 34.3464 49.074 34.2097 49.5697 34.2371C50.3545 34.2781 51.1394 34.2644 51.9243 34.2371C52.1996 34.2371 52.2823 34.3191 52.2685 34.5789C52.2547 35.0027 52.2685 35.4129 52.2685 35.8368L52.2272 35.8641Z" fill="#277EFF"/>
<path id="Vector_10" d="M15.4076 31.27C16.5918 31.27 17.5694 31.7212 18.2717 32.692C18.4369 32.9244 18.492 33.0749 18.1753 33.2253C17.7484 33.444 17.3216 33.6901 16.9223 33.9636C16.6744 34.1277 16.5505 34.073 16.399 33.8405C16.0961 33.3893 15.6555 33.2253 15.1322 33.3346C14.609 33.444 14.3198 33.8132 14.1684 34.3191C13.8792 35.3719 14.4713 36.3427 15.4214 36.3153C15.862 36.3153 16.2062 36.1103 16.4403 35.7411C16.5918 35.5086 16.7019 35.4676 16.9498 35.618C17.3629 35.8915 17.8035 36.1239 18.2579 36.3564C18.4782 36.4657 18.492 36.5751 18.368 36.7802C17.6107 37.9834 16.0823 38.5987 14.5952 38.2843C13.0944 37.9698 12.0341 36.8486 11.8414 35.4129C11.5247 33.0885 13.0944 31.2563 15.4076 31.2563V31.27Z" fill="#277EFF"/>
<path id="Vector_11" d="M34.9326 34.7976C34.9326 33.8268 34.9464 32.8697 34.9326 31.8989C34.9326 31.5161 35.0565 31.4204 35.4145 31.4477C35.8965 31.4751 36.3922 31.4614 36.8741 31.4477C37.1219 31.4477 37.2459 31.5024 37.2459 31.7759C37.2459 33.7995 37.2459 35.8231 37.2459 37.8467C37.2459 38.1201 37.1357 38.1885 36.8879 38.1885C36.3784 38.1748 35.8552 38.1611 35.3319 38.1885C35.0015 38.2022 34.9464 38.0654 34.9464 37.7783C34.9602 36.7802 34.9464 35.782 34.9464 34.7976H34.9326Z" fill="#277EFF"/>
</g>
</g>
</g>
<defs>
<clipPath id="clip0_61_2670">
<rect width="64" height="73" fill="white"/>
</clipPath>
</defs>
</svg>
