<svg width="14" height="16" viewBox="0 0 14 16" fill="none" xmlns="http://www.w3.org/2000/svg">
<g id="Home_Icon_Drak_Grey" clip-path="url(#clip0_1_1306)">
<path id="Vector" d="M13.0128 4.54428L8.35455 0.0123419L8.36465 0H3.35041C1.49973 0 0 1.46621 0 3.27553V12.7245C0 14.5338 1.49973 16 3.35041 16H10.6521C12.5028 16 14.0025 14.5338 14.0025 12.7245V6.86455C14.0025 5.99321 13.6465 5.1589 13.0153 4.54428H13.0128ZM7.79152 11.9074H6.06709V6.48195H7.79152V11.9074ZM6.91794 5.81796C6.37259 5.81796 6.00902 5.4403 6.02164 4.97377C6.00902 4.48504 6.37259 4.11972 6.93057 4.11972C7.48855 4.11972 7.83949 4.48504 7.84959 4.97377C7.84959 5.4403 7.48602 5.81796 6.91794 5.81796Z" fill="#277EFF"/>
</g>
<defs>
<clipPath id="clip0_1_1306">
<rect width="14" height="16" fill="white"/>
</clipPath>
</defs>
</svg>
