<svg width="19" height="11" viewBox="0 0 19 11" fill="none" xmlns="http://www.w3.org/2000/svg">
<g id="Isolation_Mode" clip-path="url(#clip0_1_273)">
<path id="Vector" d="M5.31009 10.6879H5.17241C5.17241 10.6879 5.04725 10.6628 4.98466 10.6628C4.67175 10.6628 4.37136 10.6253 4.07096 10.5627C3.99586 10.5502 3.93328 10.5126 3.8707 10.5001C3.67043 10.4626 3.48269 10.4 3.30746 10.3249C2.94448 10.1872 2.60653 10.012 2.28111 9.78667C1.818 9.46124 1.40495 9.08574 1.06701 8.63515C0.904294 8.40986 0.754097 8.17204 0.616415 7.93423C0.503767 7.73397 0.416152 7.50867 0.341053 7.28337C0.303504 7.15821 0.228405 7.04556 0.215888 6.9204C0.215888 6.85781 0.190856 6.79523 0.165823 6.73265C0.128273 6.63252 0.115757 6.53239 0.10324 6.43225C0.0782073 6.25702 0.0531744 6.09431 0.0406579 5.91908C0.0406579 5.83146 0.0406579 5.75637 0.015625 5.66875V5.23067C0.015625 5.23067 0.015625 5.18061 0.015625 5.16809C0.0406579 4.91776 0.0656909 4.65492 0.128273 4.40459C0.265954 3.86638 0.453701 3.3532 0.74158 2.86506C1.07952 2.30182 1.5176 1.82619 2.03078 1.41315C2.25607 1.23792 2.49389 1.07521 2.74422 0.950042C2.957 0.837394 3.16977 0.737262 3.39507 0.662163C3.65792 0.562032 3.90825 0.486933 4.18361 0.436867C4.43394 0.386801 4.69678 0.361768 4.95963 0.361768C5.02221 0.361768 5.09731 0.361768 5.15989 0.324219H5.26002C5.26002 0.324219 5.28506 0.324219 5.29757 0.336735C5.42274 0.361768 5.56042 0.336735 5.68558 0.361768C5.89836 0.374285 6.11114 0.411834 6.31141 0.4619C6.49916 0.511966 6.69942 0.562032 6.88717 0.612097C7.25014 0.737262 7.58809 0.899976 7.92603 1.10024C8.35159 1.35057 8.71457 1.676 9.04 2.02646C9.34039 2.35189 9.57821 2.71486 9.79099 3.10287C9.89112 3.2781 9.96622 3.46585 10.0413 3.6536C10.0914 3.77876 10.0914 3.77876 10.2165 3.77876C13.1078 3.77876 15.9992 3.77876 18.8905 3.77876C18.9155 3.77876 18.928 3.77876 18.953 3.77876C18.9906 3.77876 19.0156 3.77876 19.0281 3.82883V7.22079C19.0281 7.22079 18.9656 7.25834 18.928 7.25834C18.4273 7.25834 17.9267 7.25834 17.426 7.25834C17.3342 7.25834 17.2884 7.30423 17.2884 7.39602C17.2884 8.47244 17.2884 9.53634 17.2884 10.6128C17.2884 10.6503 17.2884 10.6879 17.2758 10.7129H13.8839C13.8839 10.7129 13.8338 10.6378 13.8338 10.5877C13.8338 9.5113 13.8338 8.43489 13.8338 7.35847C13.8338 7.29172 13.8004 7.25834 13.7337 7.25834C12.5571 7.25834 11.3806 7.25834 10.204 7.25834C10.1915 7.25834 10.1665 7.25834 10.154 7.25834C10.1039 7.25834 10.0789 7.28337 10.0663 7.32092C10.0538 7.37099 10.0288 7.42105 10.0038 7.47112C9.82854 7.92171 9.57821 8.33476 9.27781 8.72277C9.09006 8.9731 8.86477 9.18588 8.63947 9.39866C8.25146 9.74912 7.80087 10.037 7.32524 10.2498C7.02485 10.3875 6.71194 10.4876 6.39902 10.5627C6.24883 10.6002 6.08611 10.6253 5.93591 10.6503C5.79823 10.6753 5.66055 10.6879 5.52287 10.6879C5.46029 10.6879 5.39771 10.6879 5.33512 10.7254L5.31009 10.6879ZM5.09731 7.20828C6.11114 7.20828 6.89968 6.45729 6.9122 5.49352C6.9122 4.52975 6.11114 3.79128 5.24751 3.77876C4.22116 3.75373 3.47017 4.59233 3.47017 5.45597C3.47017 6.41974 4.20864 7.20828 5.10983 7.20828H5.09731Z" fill="#277EFF"/>
</g>
<defs>
<clipPath id="clip0_1_273">
<rect width="19" height="10.3762" fill="white" transform="translate(0 0.312012)"/>
</clipPath>
</defs>
</svg>
