<svg width="17" height="16" viewBox="0 0 17 16" fill="none" xmlns="http://www.w3.org/2000/svg">
<g id="Group 1061">
<path id="XMLID_254_" d="M16.9071 8.66589L15.3978 13.9606C15.1752 14.738 14.4567 15.2811 13.6495 15.2811H5.47945C5.14411 15.2811 4.87305 15.0093 4.87305 14.6743V6.17842C4.87305 6.04795 4.91489 5.92051 4.99311 5.81613L8.26285 1.42256C8.62548 0.968032 9.1482 0.716797 9.70851 0.716797C10.7206 0.716797 11.5435 1.54029 11.5435 2.55312V5.57157H14.5767C15.3438 5.57157 16.0485 5.92294 16.5099 6.53585C16.9732 7.14998 17.1176 7.92614 16.9071 8.66589Z" fill="#277EFF"/>
<path id="XMLID_256_" d="M3.0653 5.58984H0.61306C0.274038 5.58984 0 5.86125 0 6.19566V14.677C0 15.0114 0.274038 15.2828 0.61306 15.2828H3.0653C3.40432 15.2828 3.67836 15.0114 3.67836 14.677V6.19566C3.67836 5.86125 3.40432 5.58984 3.0653 5.58984ZM1.83918 13.7683C1.33157 13.7683 0.919591 13.3612 0.919591 12.8596C0.919591 12.358 1.33157 11.9509 1.83918 11.9509C2.3468 11.9509 2.75877 12.358 2.75877 12.8596C2.75877 13.3612 2.3468 13.7683 1.83918 13.7683Z" fill="#277EFF"/>
</g>
</svg>
