<svg width="14" height="16" viewBox="0 0 14 16" fill="none" xmlns="http://www.w3.org/2000/svg">
<g id="Group">
<path id="Vector" d="M10.9635 9.73077C9.94234 9.73077 9.05041 10.2644 8.53811 11.0646L5.44926 9.29923C5.64829 8.90692 5.77118 8.47018 5.77118 8C5.77118 7.7098 5.71521 7.4352 5.63559 7.17095L8.84964 5.33459C9.37639 5.90577 10.1252 6.26923 10.9635 6.26923C12.5564 6.26923 13.8481 4.97749 13.8481 3.38462C13.8481 1.79174 12.5564 0.5 10.9635 0.5C9.37062 0.5 8.07888 1.79174 8.07888 3.38462C8.07888 3.67482 8.13485 3.94941 8.21444 4.21367L5.00041 6.05059C4.47367 5.47885 3.72483 5.11538 2.88657 5.11538C1.2937 5.11538 0.00195312 6.40654 0.00195312 8C0.00195312 9.59287 1.2937 10.8846 2.88657 10.8846C3.54426 10.8846 4.14311 10.6562 4.62829 10.2852L8.11003 12.3033C8.09908 12.4077 8.07888 12.5086 8.07888 12.6154C8.07888 14.2083 9.37062 15.5 10.9635 15.5C12.5564 15.5 13.8481 14.2083 13.8481 12.6154C13.8481 11.0225 12.5564 9.73077 10.9635 9.73077Z" fill="#277EFF"/>
</g>
</svg>
