<svg width="17" height="19" viewBox="0 0 17 19" fill="none" xmlns="http://www.w3.org/2000/svg">
<g id="Isolation_Mode" clip-path="url(#clip0_1_295)">
<path id="Vector" d="M15.5323 15.7647L10.6687 14.5854C10.4671 14.535 10.2554 14.5854 10.0992 14.7265L6.36955 18.063C5.98147 18.4107 5.36154 18.1638 5.32122 17.6396L4.94322 12.65C4.9281 12.4433 4.81218 12.2569 4.63074 12.1561L0.311439 9.64109C-0.137124 9.37901 -0.0917634 8.71372 0.387039 8.51716L5.01378 6.61707C5.2053 6.53643 5.34642 6.37011 5.39178 6.16851L6.45019 1.27465C6.56107 0.765605 7.20619 0.604324 7.54387 1.00249L10.7846 4.81274C10.9207 4.96898 11.1223 5.05467 11.3289 5.02946L16.3085 4.52042C16.8276 4.47002 17.1804 5.0345 16.9082 5.47803L14.2824 9.73685C14.1715 9.91325 14.1564 10.13 14.2421 10.3215L16.2631 14.8978C16.4748 15.3766 16.0464 15.8857 15.5374 15.7647H15.5323Z" fill="#277EFF"/>
</g>
<defs>
<clipPath id="clip0_1_295">
<rect width="17" height="17.4486" fill="white" transform="translate(0 0.775879)"/>
</clipPath>
</defs>
</svg>
