<svg width="72" height="61" viewBox="0 0 72 61" fill="none" xmlns="http://www.w3.org/2000/svg">
<g id="Layer_1" clip-path="url(#clip0_419_17915)">
<path id="Vector" d="M0.00164413 37.8441C2.86225 36.2688 5.58594 34.7717 8.30962 33.271C10.2562 32.2022 12.1916 31.1185 14.1493 30.0683C14.6599 29.7927 15.0189 29.4352 15.2965 28.9213C17.676 24.5084 20.074 20.1103 22.4683 15.7048C22.6312 15.4069 22.8014 15.1127 22.9753 14.8036C23.3232 14.9898 23.3972 15.3398 23.5489 15.6191C25.9359 19.9911 28.3265 24.3594 30.6801 28.75C31.0354 29.4166 31.5053 29.8449 32.153 30.1987C36.4827 32.5597 40.8014 34.9468 45.1201 37.3301C45.3865 37.4791 45.653 37.6355 46.0156 37.8478C45.6752 38.0489 45.4087 38.2202 45.1349 38.3729C40.7348 40.7972 36.3347 43.229 31.9235 45.6384C31.4165 45.9177 31.0576 46.2715 30.78 46.7854C28.3857 51.2245 25.9729 55.6523 23.56 60.0802C23.412 60.3483 23.2603 60.6164 23.0456 61C22.8384 60.6425 22.6682 60.3744 22.5164 60.0951C20.0888 55.6374 17.6612 51.1835 15.2484 46.7221C15.0004 46.2678 14.6896 45.9512 14.2344 45.7017C9.77139 43.2625 5.31949 40.8009 0.863899 38.3468C0.619656 38.209 0.382812 38.0638 0.00164413 37.8441Z" fill="#277EFF"/>
<path id="Vector_2" d="M40.7368 15.2119C42.6804 14.1719 44.531 13.1835 46.3815 12.1926C47.704 11.487 49.019 10.7715 50.3491 10.0782C50.6961 9.89621 50.94 9.66018 51.1286 9.32088C52.7453 6.40734 54.3746 3.50363 56.0013 0.595003C56.112 0.39831 56.2276 0.204071 56.3458 0C56.5821 0.122934 56.6324 0.354052 56.7355 0.538452C58.3573 3.42495 59.9815 6.30899 61.5806 9.20778C61.822 9.64788 62.1413 9.93063 62.5813 10.1642C65.5231 11.723 68.4573 13.299 71.3915 14.8726C71.5726 14.9709 71.7536 15.0742 72 15.2143C71.7687 15.3471 71.5877 15.4602 71.4016 15.561C68.4121 17.1616 65.4225 18.7672 62.4254 20.3579C62.081 20.5423 61.8371 20.7759 61.6485 21.1152C60.0217 24.0459 58.3824 26.9693 56.7431 29.8927C56.6425 30.0697 56.5394 30.2468 56.3936 30.5C56.2528 30.264 56.1371 30.0869 56.034 29.9025C54.3846 26.9595 52.7352 24.0189 51.0959 21.0734C50.9274 20.7734 50.7162 20.5644 50.4069 20.3997C47.3747 18.7893 44.3499 17.1641 41.3227 15.5438C41.1567 15.4528 40.9958 15.357 40.7368 15.2119Z" fill="#277EFF"/>
</g>
<defs>
<clipPath id="clip0_419_17915">
<rect width="72" height="61" fill="white" transform="matrix(-1 0 0 -1 72 61)"/>
</clipPath>
</defs>
</svg>
