<svg width="50" height="50" viewBox="0 0 50 50" fill="none" xmlns="http://www.w3.org/2000/svg">
<g id="micro_blog_logo_icon_145065 (1) 1" clip-path="url(#clip0_419_17999)">
<path id="Vector" d="M44.5797 36.8733C40.4125 42.2937 42.4969 46.8749 43.9625 49.1718C44.5797 50.0015 43.75 50.0015 43.3359 50.0015C39.8922 49.3749 36.8656 47.3327 35.0031 44.378C34.5891 44.1655 34.3766 43.964 33.9609 44.1655C31.0375 45.0046 28.125 45.6218 25 45.4202C11.2453 45.4202 0 35.4187 0 22.9187C0 10.4187 11.2453 0.00146484 25 0.00146484C38.7547 0.00146484 50 10.2062 50 22.9187C50 28.1265 47.9172 32.9187 44.5797 36.8733ZM25 29.1671L31.6641 33.7483C32.2656 34.1062 33.0156 33.6108 32.9188 32.9187L30.4203 24.9999L36.8719 20.0046C37.1734 19.5483 36.9703 18.9296 36.4578 18.7499H28.3375L25.6266 10.8312C25.2937 10.4577 24.7062 10.4577 24.3719 10.8312L21.6609 18.7499H13.3281C12.7031 18.9765 12.5797 19.8171 13.1266 20.2062L19.3766 25.2124L17.2937 32.9187C17.2766 33.4702 17.7984 33.8874 18.3359 33.7483L25 29.1671Z" fill="#277EFF"/>
</g>
<defs>
<clipPath id="clip0_419_17999">
<rect width="50" height="50" fill="white"/>
</clipPath>
</defs>
</svg>
