<svg width="40" height="40" viewBox="0 0 40 40" fill="none" xmlns="http://www.w3.org/2000/svg">
<g id="Icon / graphic">
<g id="Vector">
<path d="M3.87211 22.1792C5.43804 21.6668 7.44528 22.464 9.5664 23.3039C11.1466 23.9302 12.926 24.642 13.7944 24.3858C15.5881 23.8591 17.5669 20.9407 19.4602 18.1078C22.0226 14.3069 24.4285 10.7337 27.5319 10.7337H27.5461C29.5249 10.7337 30.9769 12.9545 32.372 15.0899C33.2689 16.4707 34.2938 18.0366 35.1053 18.3356C35.7743 18.5918 37.7531 18.0366 39.86 17.1967V15.0187C39.86 6.73349 33.1407 0 24.8413 0H15.0187C6.73349 0 0 6.73349 0 15.0187V23.9872C0 24.5139 0.0284714 25.0406 0.0854143 25.5531C1.30969 24.0156 2.71902 22.5494 3.88635 22.165L3.87211 22.1792ZM6.36336 8.39907L10.3209 8.42754C10.8903 8.42754 11.3459 8.89732 11.3316 9.45251C11.3316 10.0219 10.8761 10.4632 10.3067 10.4632L6.34913 10.4348C5.7797 10.4348 5.32416 9.965 5.33839 9.40981C5.33839 8.84038 5.79394 8.39907 6.36336 8.39907ZM6.33489 12.9687L10.2924 12.9972C10.8619 12.9972 11.3174 13.467 11.3032 14.0222C11.3032 14.5916 10.8476 15.0329 10.2782 15.0329L6.32066 15.0044C5.75123 15.0044 5.29569 14.5347 5.30992 13.9795C5.30992 13.41 5.76546 12.9687 6.33489 12.9687ZM6.30642 17.2252L10.264 17.2537C10.8334 17.2537 11.2889 17.7235 11.2747 18.2787C11.2747 18.8481 10.8191 19.2894 10.2497 19.2894L6.29219 19.2609C5.72276 19.2609 5.26721 18.7911 5.28145 18.236C5.28145 17.6665 5.73699 17.2252 6.30642 17.2252Z" fill="#2785FF"/>
<path d="M34.3792 20.2574C32.9557 19.7165 31.8453 18.0082 30.6637 16.2145C29.7242 14.7624 28.4145 12.7837 27.5319 12.7837C25.5246 12.7837 23.2042 16.2287 21.1543 19.2609C18.9477 22.5351 16.8693 25.6243 14.3638 26.3503C12.8121 26.8058 10.8618 26.0229 8.79767 25.1972C7.18904 24.5566 5.36686 23.8306 4.49849 24.1153C3.60164 24.4142 1.993 26.3076 0.5979 28.2579C2.43431 34.4789 8.18554 39.0201 15.0044 39.0201H24.8271C33.1265 39.0201 39.8458 32.2866 39.8458 24.0014V19.4175C37.8528 20.172 35.632 20.7414 34.365 20.2574H34.3792ZM10.2497 30.7776L6.29219 30.7491C5.72276 30.7491 5.26721 30.2794 5.28145 29.7242C5.28145 29.1547 5.73699 28.7134 6.30642 28.7134L10.264 28.7419C10.8334 28.7419 11.2889 29.2117 11.2747 29.7669C11.2747 30.3363 10.8191 30.7776 10.2497 30.7776Z" fill="#2785FF"/>
</g>
</g>
</svg>
