<svg width="29" height="40" viewBox="0 0 29 40" fill="none" xmlns="http://www.w3.org/2000/svg">
<g id="Icon / idea" clip-path="url(#clip0_419_17988)">
<path id="Vector" d="M28.632 21.1396C28.0863 17.5573 26.6629 14.0937 24.2787 10.547C21.6928 6.70372 18.4189 3.37053 15.5602 0.606716C15.3941 0.452511 15.1925 0.310169 14.9789 0.203412C14.2672 -0.152444 13.4488 -0.0338253 12.9387 0.499959C12.4049 1.06933 12.31 1.86407 12.7015 2.58765C12.8913 2.93164 13.0336 3.31122 13.1285 3.72639C13.6386 5.95642 13.7809 8.22204 13.5437 10.4639C13.4962 10.9028 13.4132 11.2824 13.2946 11.6501C13.1522 10.9503 12.9862 10.3809 12.7726 9.84712C11.9304 7.72384 10.7087 6.26483 9.02429 5.35147C8.30071 4.96002 7.62458 4.98375 7.03149 5.42264C6.16557 6.06318 6.33164 7.03585 6.37909 7.35612C6.4384 7.7357 6.50957 8.13901 6.50957 8.53045C6.52143 9.70477 6.26047 10.9265 5.71482 12.2788C4.62353 14.9359 3.31872 17.5692 1.72923 20.3211C-0.00260029 23.2985 -0.44149 26.6198 0.448151 30.1902C1.43269 34.1995 4.07788 37.1769 8.30071 39.0273C9.78344 39.6797 11.3729 40 13.0929 40C14.2316 40 15.4416 39.8577 16.7108 39.573C20.044 38.8257 22.5587 37.4853 24.3973 35.4925C28.0507 31.5306 29.4742 26.7028 28.632 21.1278V21.1396ZM16.7819 25.7183L16.8413 25.398L16.6752 25.3624L12.5591 29.5022C12.0728 29.9886 11.5864 30.4749 11.1001 30.9613C10.6019 31.4476 9.97323 31.4713 9.52248 31.0324C9.30897 30.8308 9.20221 30.5698 9.20221 30.3088C9.20221 30.0004 9.34455 29.692 9.59365 29.4311C10.7205 28.2923 11.8593 27.1536 12.998 26.0267L14.6587 24.366C14.7298 24.2949 14.7892 24.2237 14.8722 24.1407L15.4178 23.5594L14.8129 23.4527C14.4452 23.3934 14.1012 23.3815 13.7809 23.3815H13.6623C13.4962 23.3815 13.3301 23.3815 13.1641 23.3815C12.998 23.3815 12.8438 23.3815 12.6777 23.3815H12.3693C11.6576 23.3696 11.2187 22.9545 11.2069 22.3139C11.2069 22.0055 11.3136 21.7446 11.5034 21.5429C11.7169 21.3294 12.0253 21.2227 12.3693 21.2227C13.2471 21.2227 14.1368 21.2464 15.0145 21.2582L16.4854 21.282C16.7464 21.282 17.0192 21.282 17.2801 21.282C17.6123 21.282 17.9444 21.282 18.2884 21.282C18.8815 21.282 19.3323 21.7446 19.3441 22.3258C19.3678 24.2593 19.4034 26.1928 19.4153 28.1263C19.4153 28.7668 19.0476 29.2176 18.4426 29.3124C18.0037 29.3836 17.4937 29.0634 17.3157 28.5889C17.2564 28.4347 17.2564 28.2686 17.2564 28.067V27.9246C17.2564 27.4027 17.2564 26.8808 17.2564 26.3588V25.4811L16.865 25.4099L16.7819 25.7302V25.7183Z" fill="#277EFF"/>
</g>
<defs>
<clipPath id="clip0_419_17988">
<rect width="28.856" height="40" fill="white"/>
</clipPath>
</defs>
</svg>
