<svg width="48" height="39" viewBox="0 0 48 39" fill="none" xmlns="http://www.w3.org/2000/svg">
<g id="Icon / Study" clip-path="url(#clip0_419_17993)">
<g id="Vector">
<path d="M24.0154 27.0152C23.2315 27.0454 22.5079 26.8343 21.8445 26.4122C14.8948 22.161 7.96012 17.9097 1.01037 13.6584C0.497812 13.3419 -0.0147508 12.9801 0.000324599 12.3017C0.0304754 11.578 0.558114 11.2464 1.14605 10.9449C8.12595 7.46246 15.1059 3.96498 22.0858 0.482565C23.3521 -0.150601 24.6335 -0.150601 25.8998 0.482565C32.8646 3.96498 39.8295 7.44739 46.8094 10.9298C46.8546 10.9449 46.8998 10.975 46.93 10.9901C47.4576 11.2615 47.94 11.6082 47.9852 12.2564C48.0305 12.9198 47.5631 13.2816 47.0506 13.5981C44.5028 15.1509 41.9702 16.7187 39.4375 18.2715C35.0204 20.9851 30.6033 23.6836 26.1863 26.3971C25.5229 26.8042 24.7993 27.0454 24.0154 27.0152Z" fill="#2785FF"/>
<path d="M42.2868 25.1459C42.2868 26.4876 42.2566 27.8293 42.2868 29.171C42.332 30.7388 41.729 32.0203 40.7038 33.1509C39.2415 34.779 37.4174 35.8795 35.4425 36.7238C30.9651 38.6534 26.2616 39.2866 21.4375 38.8946C17.8797 38.6082 14.4576 37.779 11.2767 36.1208C9.52796 35.2162 7.92997 34.1157 6.75409 32.4876C6.0757 31.5529 5.69882 30.5278 5.71389 29.3519C5.71389 26.6685 5.71389 23.97 5.71389 21.2866C5.71389 20.8343 5.65359 20.3368 6.10585 20.0655C6.57319 19.779 6.96515 20.1409 7.34203 20.367C11.729 23.0504 16.1159 25.7489 20.5028 28.4323C22.8244 29.8494 25.1461 29.8494 27.4677 28.4323C32.0204 25.6434 36.5581 22.8544 41.1109 20.0655C41.141 20.0504 41.1712 20.0353 41.1863 20.0203C41.4425 19.8695 41.6988 19.6434 42.0003 19.8243C42.2868 20.0052 42.2566 20.3368 42.2566 20.6383C42.2566 22.1308 42.2566 23.6383 42.2566 25.1308L42.2868 25.1459Z" fill="#2785FF"/>
<path d="M46.3119 25.4172C46.3119 27.6635 46.3119 29.9097 46.3119 32.1559C46.3119 32.6082 46.4325 32.8946 46.8094 33.166C47.6687 33.7991 47.94 34.6886 47.7139 35.6836C47.4878 36.6635 46.8395 37.2816 45.8445 37.5077C44.729 37.764 43.5832 37.2213 43.0707 36.1811C42.5732 35.1861 42.8295 33.8896 43.7189 33.2263C44.141 32.9097 44.2767 32.578 44.2767 32.0504C44.2616 27.965 44.2767 23.8645 44.2466 19.779C44.2466 19.1007 44.4275 18.6032 45.0456 18.2866C45.2717 18.1811 45.4677 18.0303 45.6938 17.9097C46.1461 17.6534 46.2968 17.7288 46.2968 18.2715C46.2968 20.0806 46.2968 21.8896 46.2968 23.6986C46.2968 24.2564 46.2968 24.8293 46.2968 25.3871L46.3119 25.4172Z" fill="#2785FF"/>
</g>
</g>
<defs>
<clipPath id="clip0_419_17993">
<rect width="47.9849" height="39" fill="white"/>
</clipPath>
</defs>
</svg>
