<svg width="40" height="36" viewBox="0 0 40 36" fill="none" xmlns="http://www.w3.org/2000/svg">
<g id="Group 1016">
<path id="Vector" d="M9.76581 0.365912C11.9917 0.429231 14.0082 1.03319 15.6788 2.58693C16.6821 3.52209 17.7293 4.40855 18.7522 5.32424C18.9032 5.46061 18.9811 5.46549 19.1321 5.31449C21.0122 3.47826 23.1114 1.95862 25.5565 0.94552C26.9446 0.370783 28.3863 0.0200959 29.8962 0.000613263C32.1221 -0.02374 34.1045 0.677634 35.8579 2.03168C37.2996 3.14705 38.488 4.48161 39.2527 6.14738C40.2074 8.22715 40.2123 10.3507 39.4671 12.489C38.7559 14.5298 37.5237 16.2491 36.0673 17.8223C35.2832 18.6698 34.4357 19.4589 33.5297 20.1749C33.3836 20.2917 33.3836 20.3551 33.52 20.4768C33.9973 20.9152 34.3529 21.4315 34.4649 22.0842C34.5574 22.6345 34.4649 23.1313 34.0606 23.5502C33.1255 24.5146 32.0198 24.5682 30.9921 23.6233C30.13 22.8294 29.3117 21.9916 28.5032 21.1441C28.0308 20.6473 27.758 20.0287 27.8262 19.3274C27.9431 18.1438 29.1559 17.3742 30.3054 17.7249C30.7924 17.871 31.2016 18.1487 31.5571 18.5091C31.6399 18.5919 31.6984 18.6357 31.8153 18.5432C33.7586 16.9748 35.5023 15.2311 36.6956 13.0053C37.1973 12.075 37.5383 11.0862 37.6308 10.0244C37.7672 8.49016 37.3191 7.12638 36.4132 5.90384C35.4682 4.62773 34.3188 3.58054 32.8527 2.92788C31.07 2.12909 29.2533 2.19241 27.4268 2.7574C25.4834 3.36136 23.7982 4.42804 22.2249 5.69441C21.7622 6.06458 21.3239 6.46884 20.8855 6.86823C20.7345 7.00461 20.7394 7.0728 20.8904 7.20918C22.6 8.71421 24.2998 10.2339 25.9997 11.7438C26.3406 12.0506 26.404 12.3477 26.214 12.7763C26.0728 13.0978 25.8438 13.3559 25.576 13.58C24.7626 14.2765 23.8371 14.7782 22.8386 15.1532C22.6682 15.2165 22.4831 15.2555 22.3029 15.2847C21.2508 15.4552 20.2621 15.2165 19.3172 14.7684C18.0362 14.1596 16.9646 13.278 16.0441 12.2065C15.9223 12.0652 15.8639 12.0701 15.7324 12.1919C12.9415 14.7977 10.1506 17.4035 7.3451 19.9898C6.92623 20.3746 6.88239 20.7837 7.02364 21.2659C7.30127 22.2059 8.37768 22.7563 9.31771 22.4446C9.42974 22.4056 9.50767 22.3277 9.59047 22.2498C11.4559 20.5207 13.3263 18.7965 15.1869 17.0674C15.4791 16.7946 15.8103 16.6436 16.2146 16.7069C16.6919 16.78 17.0231 17.0528 17.1692 17.5155C17.3105 17.9782 17.2033 18.3922 16.8526 18.7234C16.312 19.2348 15.7616 19.7365 15.2112 20.243C13.8523 21.4997 12.4934 22.7612 11.1296 24.0129C10.9883 24.1444 10.9299 24.2808 10.9202 24.4708C10.8666 25.44 11.6215 26.3752 12.5616 26.5164C12.8343 26.5603 12.9951 26.4483 13.1801 26.268C13.9254 25.5472 14.69 24.8556 15.4499 24.1542C16.6529 23.0437 17.8511 21.9283 19.0541 20.8227C19.4097 20.4963 19.8237 20.4038 20.2816 20.5791C20.7345 20.7545 20.9878 21.1003 21.0316 21.5776C21.0706 22.0013 20.8806 22.3326 20.5738 22.6151C19.4146 23.6769 18.2651 24.7484 17.1108 25.8151C16.4873 26.3947 15.8639 26.9694 15.2404 27.549C15.1722 27.6123 15.0992 27.6757 15.0797 27.7779C14.8897 28.7131 15.0894 29.7506 16.0538 30.3691C16.2438 30.4909 16.4484 30.5883 16.6773 30.6029C16.9598 30.6224 17.1936 30.5688 17.3689 30.2912C18.0557 29.2391 19.0882 29.0005 20.1841 29.6191C20.4228 29.7554 20.6371 29.921 20.8319 30.1159C21.5528 30.8367 22.2785 31.5478 22.9945 32.2784C23.5205 32.8142 23.842 33.4425 23.803 34.2169C23.7836 34.592 23.652 34.9183 23.389 35.1911C23.3403 35.2447 23.2819 35.2885 23.238 35.3469C22.4977 36.2285 21.5138 36.0678 20.8173 35.7074C20.53 35.5612 20.2767 35.3615 20.0526 35.1326C19.322 34.402 18.5866 33.6714 17.8608 32.936C17.7878 32.8629 17.7245 32.8191 17.6124 32.8434C16.1805 33.199 15.0115 32.6973 14.0033 31.7183C13.2678 31.0072 12.8489 30.1305 12.7223 29.1174C12.7077 29.0005 12.7223 28.8641 12.5226 28.8544C11.0565 28.7764 9.99961 28.0166 9.21543 26.8282C8.85987 26.2924 8.66018 25.6933 8.59686 25.0504C8.58225 24.9091 8.53841 24.8653 8.39716 24.8507C6.51709 24.6802 5.02667 23.3408 4.67111 21.5045C4.58344 21.0613 4.58344 20.6083 4.66624 20.1651C4.69547 20.0044 4.66624 19.9021 4.54935 19.7852C2.8641 17.9977 1.51006 16.0007 0.677179 13.6774C-0.199538 11.2275 -0.306693 8.77266 0.842781 6.38604C2.10428 3.7705 4.04767 1.83685 6.83368 0.843236C7.77859 0.507161 8.75759 0.361042 9.76581 0.365912Z" fill="#277EFF"/>
<path id="Vector_2" d="M20.7061 27.242C20.7061 26.8036 20.8473 26.4237 21.1688 26.1217C21.198 26.0925 21.2272 26.0633 21.2516 26.0389C21.9822 25.3084 22.7517 25.1963 23.6674 25.6834C23.9109 25.81 24.135 25.9659 24.3298 26.1607C25.0896 26.9205 25.8543 27.6755 26.6093 28.4402C27.0379 28.8737 27.3107 29.3948 27.374 30.0085C27.4276 30.5053 27.2863 30.934 26.9502 31.3139C26.468 31.8594 25.9128 32.1906 25.153 32.0396C24.6513 31.9373 24.2032 31.7279 23.8428 31.3723C23.0147 30.5687 22.1916 29.7553 21.3928 28.9224C20.9545 28.4645 20.7109 27.8995 20.7061 27.2517V27.242Z" fill="#277EFF"/>
<path id="Vector_3" d="M24.2302 23.5696C24.2302 22.2399 25.3797 21.3778 26.5194 21.6749C26.9968 21.7966 27.4108 22.0353 27.7614 22.3762C28.5359 23.1409 29.3103 23.9056 30.075 24.6849C30.489 25.1038 30.7277 25.6152 30.8397 26.2046C31.0491 27.2761 29.7487 28.5766 28.531 28.1577C28.0245 27.9824 27.5861 27.734 27.2111 27.3589C26.5048 26.6575 25.8034 25.9562 25.1021 25.2499C24.5907 24.7336 24.2448 24.1345 24.2302 23.5696Z" fill="#277EFF"/>
</g>
</svg>
