<svg width="44" height="48" viewBox="0 0 44 48" fill="none" xmlns="http://www.w3.org/2000/svg">
<g id="Layer_1" clip-path="url(#clip0_1_1185)">
<path id="Vector" d="M34.4797 48H1.11073C0.288518 47.6931 0 47.087 0 46.2165C0.013621 35.4041 0.00866791 24.593 0.00866791 13.7807C0.00866791 12.4431 0.605516 11.8444 1.93914 11.8444C4.64229 11.8444 7.34544 11.8444 10.0486 11.8444C11.2299 11.8444 11.7339 11.3296 11.7351 10.1273C11.7364 7.4245 11.7351 4.72172 11.7351 2.01894C11.7364 0.553581 12.2775 0 13.7102 0C20.3993 0 27.0872 0 33.7764 0C35.084 0 35.5669 0.485949 35.5669 1.80477C35.5669 7.3982 35.5644 12.9916 35.5731 18.585C35.5731 18.937 35.4827 19.1912 35.2301 19.4455C32.2285 22.4639 29.253 25.5086 26.2403 28.5157C24.4819 30.2716 23.2312 32.3018 22.679 34.7491C22.622 35.0034 22.544 35.0547 22.2877 34.962C20.3981 34.2832 18.8304 34.7053 17.56 36.2621C17.051 36.887 16.6164 37.5746 16.1409 38.2284C15.9118 38.544 15.6642 38.8459 15.3088 39.0275C14.8729 39.2504 14.7615 39.1915 14.7392 38.7031C14.6971 37.7988 14.7317 36.8921 14.6488 35.9878C14.4667 34.0252 13.2409 32.9857 11.3017 33.1773C10.5786 33.2487 9.92105 33.5105 9.32915 33.9263C7.65748 35.0986 6.68172 36.7818 6.04154 38.6755C5.74559 39.551 6.40187 40.4127 7.29962 40.459C7.92 40.4916 8.44502 40.1209 8.70259 39.447C9.06168 38.509 9.51489 37.626 10.1823 36.8708C10.5043 36.5051 10.8733 36.202 11.3364 36.0341C11.6757 35.9114 11.8936 35.9389 11.8973 36.3911C11.9035 37.2189 11.9147 38.0468 11.9667 38.8722C12.1586 41.8743 14.4494 42.5068 16.5124 41.5762C17.3891 41.1804 17.9909 40.469 18.5345 39.6975C18.9468 39.1139 19.2886 38.4764 19.7876 37.9591C20.3064 37.4218 20.8439 37.3279 21.5138 37.6435C21.9818 37.864 22.3744 38.1933 22.752 38.5403C23.0653 38.8283 23.4281 38.9699 23.8479 38.9611C26.5399 38.9097 28.9806 38.1019 31.1178 36.4337C32.5914 35.2852 33.7912 33.8398 35.1311 32.5473C35.2462 32.4359 35.3255 32.2668 35.5186 32.2392C35.6041 32.3908 35.5607 32.5486 35.562 32.6989C35.5644 37.1989 35.5545 41.6989 35.5731 46.1977C35.5768 47.0607 35.3007 47.6819 34.4785 47.9962L34.4797 48ZM17.9005 31.4176C18.3846 31.4063 18.7797 31.112 19.062 30.6098C20.9937 27.1806 22.9279 23.7526 24.8695 20.3285C25.1927 19.7586 25.2026 19.2213 24.8794 18.6502C22.9378 15.226 21.0085 11.7955 19.0669 8.37135C18.428 7.24415 17.1513 7.23663 16.5173 8.35507C14.5757 11.7793 12.6465 15.2097 10.7049 18.6339C10.3718 19.2213 10.3767 19.7761 10.7197 20.3548C11.1172 21.0236 11.4875 21.7074 11.8701 22.385C13.408 25.1078 14.9509 27.8268 16.4814 30.5547C16.7798 31.087 17.1749 31.4214 17.9005 31.4176Z" fill="#277EFF"/>
<path id="Vector_2" d="M43.7304 19.4757C43.7193 19.7925 43.5682 20.0355 43.3515 20.2522C42.585 21.0224 41.8222 21.7977 41.0582 22.5704C37.5093 26.1587 33.9604 29.747 30.4128 33.3365C29.0903 34.6741 27.5189 35.5395 25.6912 35.9528C25.2653 36.0493 25.2591 35.899 25.3321 35.5671C25.721 33.8024 26.5073 32.2468 27.7678 30.9656C32.1142 26.5495 36.4741 22.1471 40.8316 17.7435C41.3765 17.1937 41.8408 17.2 42.3955 17.7435C42.7386 18.0817 43.0741 18.4261 43.4109 18.7705C43.6029 18.9659 43.7168 19.1989 43.7316 19.4769L43.7304 19.4757Z" fill="#277EFF"/>
<path id="Vector_3" d="M1.25905 9.03151C1.83237 7.83292 7.91477 1.70345 8.95244 1.27637C8.95244 1.50181 8.95244 1.71222 8.95244 1.92263C8.95244 4.12568 8.94377 6.32874 8.95987 8.53054C8.96235 8.90502 8.8831 9.04279 8.48066 9.04028C6.08832 9.02149 3.69721 9.03151 1.25781 9.03151H1.25905Z" fill="#277EFF"/>
<path id="Vector_4" d="M17.7797 11.8672C17.9283 11.9223 17.958 12.0738 18.0224 12.1891C19.1567 14.1905 20.2823 16.1969 21.4239 18.1933C21.5886 18.4801 21.6023 18.5891 21.2345 18.673C20.1832 18.9134 19.1418 19.1965 18.0979 19.4658C17.9147 19.5134 17.7351 19.5271 17.5506 19.4796C16.4609 19.2015 15.37 18.9222 14.2779 18.6542C14.0525 18.5991 13.9547 18.5465 14.0996 18.2922C15.3081 16.1731 16.5068 14.0464 17.7091 11.9235C17.7227 11.901 17.7525 11.8872 17.7797 11.8672Z" fill="#277EFF"/>
<path id="Vector_5" d="M20.9144 21.6534C19.852 23.5346 18.8403 25.3231 17.7866 27.188C16.7303 25.3181 15.7186 23.5284 14.6562 21.6484C15.5478 21.8726 16.3514 22.0555 17.1439 22.2797C17.5921 22.4074 18.0181 22.3949 18.4602 22.2759C19.2428 22.0655 20.0303 21.8764 20.9144 21.6534Z" fill="#277EFF"/>
</g>
<defs>
<clipPath id="clip0_1_1185">
<rect width="43.7333" height="48" fill="white"/>
</clipPath>
</defs>
</svg>
