<svg width="21" height="103" viewBox="0 0 21 103" fill="none" xmlns="http://www.w3.org/2000/svg">
<path d="M20.6 29.1L0.999999 22.492L0.999999 20.308L17.716 14.568L1 8.8L1 6.644L20.6 0.036L20.6 2.164L3.744 7.82L20.6 13.672L20.6 15.604L3.66 21.372L20.6 27.112L20.6 29.1ZM2.792 45.919L0.999998 45.919L0.999999 32.059L20.6 32.059L20.6 45.499L18.808 45.499L18.808 34.131L11.836 34.131L11.836 44.267L10.072 44.267L10.072 34.131L2.792 34.131L2.792 45.919ZM11.108 62.2975C10.828 63.5855 10.268 64.5748 9.428 65.2655C8.60666 65.9748 7.54266 66.3295 6.236 66.3295C4.556 66.3295 3.25866 65.7042 2.344 64.4535C1.448 63.2215 0.999997 61.3922 0.999997 58.9655L0.999998 49.9495L20.6 49.9495L20.6 58.4055C20.6 60.5895 20.1613 62.2788 19.284 63.4735C18.4067 64.6868 17.1653 65.2935 15.56 65.2935C14.4773 65.2935 13.5533 65.0228 12.788 64.4815C12.0413 63.9588 11.4813 63.2308 11.108 62.2975ZM18.892 52.0215L11.78 52.0215L11.78 58.2655C11.78 59.8522 12.0787 61.0748 12.676 61.9335C13.292 62.7922 14.1787 63.2215 15.336 63.2215C16.4933 63.2215 17.3707 62.7922 17.968 61.9335C18.584 61.0748 18.892 59.8522 18.892 58.2655L18.892 52.0215ZM2.708 58.9375C2.708 60.6922 3.00666 62.0175 3.604 62.9135C4.20133 63.8095 5.13466 64.2575 6.404 64.2575C8.84933 64.2575 10.072 62.4842 10.072 58.9375L10.072 52.0215L2.708 52.0215L2.708 58.9375ZM11.836 73.8869C11.836 76.1269 11.3413 77.8255 10.352 78.9829C9.38133 80.1589 8.056 80.7469 6.376 80.7469C4.71466 80.7469 3.38933 80.1775 2.4 79.0389C1.41066 77.9189 0.915997 76.3322 0.915997 74.2789C0.915997 72.8229 1.168 71.4882 1.672 70.2749C2.19466 69.0615 2.86666 68.1562 3.688 67.5589L4.052 67.9229C3.28666 68.4829 2.66133 69.3322 2.176 70.4709C1.69066 71.6095 1.448 72.8789 1.448 74.2789C1.448 76.1829 1.88666 77.6389 2.764 78.6469C3.64133 79.6735 4.84533 80.1869 6.376 80.1869C7.92533 80.1869 9.12933 79.6642 9.988 78.6189C10.8653 77.5735 11.304 76.0055 11.304 73.9149L11.304 72.9069L11.724 72.9069L20.068 79.2629L20.068 68.1749L20.6 68.1749L20.6 80.0189L20.18 80.0189L11.836 73.6629L11.836 73.8869ZM0.915996 84.0747C0.915996 83.8881 0.990663 83.7201 1.14 83.5707C1.28933 83.4214 1.45733 83.3467 1.644 83.3467C1.84933 83.3467 2.01733 83.4214 2.148 83.5707C2.29733 83.7201 2.372 83.8881 2.372 84.0747C2.372 84.2801 2.29733 84.4481 2.148 84.5787C2.01733 84.7281 1.84933 84.8027 1.644 84.8027C1.45733 84.8027 1.28933 84.7281 1.14 84.5787C0.990663 84.4481 0.915996 84.2801 0.915996 84.0747ZM0.915996 94.6272C0.915996 93.1526 1.31733 91.8459 2.12 90.7072C2.94133 89.5872 4.09866 88.7099 5.592 88.0752C7.08533 87.4592 8.82133 87.1512 10.8 87.1512C12.7787 87.1512 14.5147 87.4592 16.008 88.0752C17.5013 88.7099 18.6493 89.5872 19.452 90.7072C20.2733 91.8459 20.684 93.1526 20.684 94.6272C20.684 96.1019 20.2733 97.3992 19.452 98.5192C18.6493 99.6579 17.5013 100.535 16.008 101.151C14.5147 101.786 12.7787 102.103 10.8 102.103C8.82133 102.103 7.08533 101.786 5.592 101.151C4.09866 100.535 2.94133 99.6579 2.12 98.5192C1.31733 97.3992 0.915996 96.1019 0.915996 94.6272ZM1.448 94.6272C1.448 95.9899 1.83066 97.1939 2.596 98.2392C3.36133 99.2846 4.444 100.097 5.844 100.675C7.26266 101.254 8.91466 101.543 10.8 101.543C12.6853 101.543 14.328 101.254 15.728 100.675C17.1467 100.097 18.2387 99.2846 19.004 98.2392C19.7693 97.1939 20.152 95.9899 20.152 94.6272C20.152 93.2646 19.7693 92.0606 19.004 91.0152C18.2387 89.9699 17.1467 89.1579 15.728 88.5792C14.328 88.0006 12.6853 87.7112 10.8 87.7112C8.91466 87.7112 7.26266 88.0006 5.844 88.5792C4.444 89.1579 3.36133 89.9699 2.596 91.0152C1.83066 92.0606 1.448 93.2646 1.448 94.6272Z" fill="#DEEFFF"/>
</svg>
